<svg width="860" height="1402" viewBox="0 0 860 1402" fill="none" xmlns="http://www.w3.org/2000/svg">
<path d="M430.202 1401.04C667.226 1401.04 859.403 1208.75 859.403 971.594V323.794C859.403 145.412 714.915 1 536.792 1C358.51 0.999998 214.18 145.57 214.18 323.794C214.18 326.164 214.18 328.534 214.338 330.904C214.338 332.958 214.495 335.012 214.495 337.066C214.495 337.54 214.495 338.014 214.495 338.488C214.653 340.384 214.653 342.122 214.811 344.018C214.969 345.756 214.969 347.494 215.285 349.232C215.443 350.812 215.601 352.392 215.759 353.972C216.233 358.87 216.864 363.926 217.496 368.824C217.654 370.404 217.97 372.142 218.285 373.722C218.443 375.144 218.759 376.724 219.075 378.146C219.549 380.832 220.022 383.676 220.654 386.362C220.97 388.1 221.286 389.68 221.759 391.418C221.917 392.05 222.075 392.682 222.233 393.472C222.549 395.052 222.865 396.632 223.339 398.212C224.602 403.584 226.023 408.956 227.444 414.328C228.234 417.172 229.023 420.016 229.971 422.86C230.445 424.44 230.918 426.02 231.392 427.442C246.078 473.578 269.448 518.924 298.188 563.322C409.2 735.542 598.061 895.912 659.646 1054.23C659.646 1054.39 659.804 1054.39 659.804 1054.54C672.595 1084.56 679.701 1117.59 679.701 1152.19C679.069 1289.49 567.584 1401.04 430.202 1401.04Z" fill="#09B5DA" fill-opacity="0.25"/>
<path d="M430.202 1401.04C567.584 1401.04 679.069 1289.49 679.069 1152.03C679.069 1119.48 671.805 1086.93 659.172 1054.39C659.172 1054.23 659.172 1054.07 659.015 1054.07C597.429 895.754 408.568 735.542 297.557 563.164C125.434 619.096 1 780.888 1 971.594C0.999997 1208.75 193.178 1401.04 430.202 1401.04Z" fill="#0096C5" fill-opacity="0.25"/>
<path d="M214.266 338.498V338.488V337.777V337.066C214.266 336.044 214.226 335.022 214.187 333.994L214.187 333.993C214.147 332.969 214.108 331.941 214.108 330.912C213.95 328.536 213.95 326.162 213.95 323.797V323.794C213.95 145.443 358.383 0.769998 536.792 0.77C715.042 0.770002 859.633 145.285 859.633 323.794V971.594C859.633 1208.88 667.353 1401.27 430.202 1401.27C193.05 1401.27 0.769997 1208.88 0.77 971.594C0.770002 780.785 125.271 618.907 297.486 562.945L297.638 562.895C269.055 518.663 245.806 473.483 231.173 427.514C230.699 426.089 230.225 424.507 229.752 422.93C228.803 420.081 228.012 417.233 227.223 414.392L227.223 414.39L227.222 414.387L227.221 414.382C225.801 409.014 224.38 403.643 223.116 398.271C222.641 396.684 222.323 395.097 222.009 393.523L222.008 393.517C221.851 392.734 221.695 392.107 221.537 391.476C221.061 389.732 220.745 388.146 220.429 386.409C219.878 384.066 219.447 381.603 219.033 379.237C218.971 378.886 218.91 378.537 218.849 378.191C218.534 376.772 218.217 375.188 218.058 373.757C217.743 372.179 217.426 370.437 217.267 368.85C216.636 363.953 216.004 358.895 215.53 353.995L214.266 338.498ZM214.266 338.498L214.266 338.507C214.345 339.45 214.384 340.354 214.424 341.263L214.424 341.264C214.463 342.172 214.503 343.084 214.582 344.037L214.582 344.039C214.634 344.603 214.668 345.175 214.703 345.751C214.774 346.915 214.845 348.095 215.057 349.264L215.293 351.625L215.53 353.994L214.266 338.498ZM659.396 1054.22C659.404 1054.24 659.411 1054.26 659.419 1054.28C659.426 1054.34 659.445 1054.39 659.474 1054.44C659.505 1054.49 659.546 1054.53 659.562 1054.55C659.567 1054.55 659.571 1054.56 659.574 1054.56V1054.59L659.593 1054.63C672.371 1084.63 679.471 1117.62 679.471 1152.19C679.402 1167.09 678.027 1181.69 675.453 1195.87C677.981 1181.64 679.299 1166.99 679.299 1152.03C679.299 1119.46 672.034 1086.9 659.402 1054.34C659.402 1054.33 659.402 1054.31 659.401 1054.29C659.401 1054.27 659.399 1054.24 659.396 1054.22ZM659.247 1053.92C659.228 1053.9 659.207 1053.89 659.187 1053.88C648.875 1027.39 635.006 1000.86 618.539 974.226C635.048 1000.9 648.954 1027.46 659.295 1053.96C659.281 1053.95 659.265 1053.93 659.247 1053.92Z" stroke="#0096C5" stroke-opacity="0.25" stroke-width="0.46"/>
</svg>
