<svg width="497" height="603" viewBox="0 0 497 603" fill="none" xmlns="http://www.w3.org/2000/svg">
<path d="M7.46065 21.8706C4.08411 11.2614 12.306 0.53264 23.4282 1.03443L244.291 10.9989L472.13 1.06278C483.639 0.560868 491.891 12.0197 487.766 22.7761L467.65 75.2381C465.488 80.8768 460.335 84.8177 454.327 85.4277L270.326 104.111C253.014 105.869 235.569 105.857 218.26 104.076L37.8011 85.5061C31.4677 84.8544 26.1234 80.5096 24.1925 74.4426L7.46065 21.8706Z" fill="#25A499"/>
<path d="M45.4719 141.704C42.3807 130.836 51.2225 120.275 62.4644 121.407L222.284 137.5C239.287 139.212 256.419 139.217 273.423 137.516L433.971 121.449C445.363 120.309 454.231 131.155 450.851 142.093L432.64 201.023C430.729 207.209 425.277 211.633 418.829 212.231L271.398 225.885C255.734 227.336 239.97 227.34 224.305 225.897L76.1731 212.25C69.5912 211.644 64.0597 207.053 62.2513 200.695L45.4719 141.704Z" fill="#1C8FAC"/>
<path d="M82.5619 261.975C80.0982 251.339 88.7761 241.413 99.6462 242.435L222.595 253.989C238.321 255.467 254.149 255.486 269.877 254.047L395.511 242.549C406.89 241.508 415.661 252.386 412.231 263.285L399.364 304.175C397.411 310.382 391.895 314.788 385.41 315.319L267.046 325.026C253.194 326.162 239.273 326.168 225.421 325.044L106.369 315.385C99.4273 314.822 93.6472 309.833 92.0756 303.048L82.5619 261.975Z" fill="#4275AA"/>
<path d="M110.305 361.707C106.731 350.895 115.277 339.916 126.636 340.726L229.709 348.083C241.789 348.945 253.916 348.949 265.997 348.094L370.592 340.695C381.89 339.896 390.419 350.767 386.953 361.551L374.766 399.475C372.803 405.583 367.381 409.928 360.992 410.513L271.378 418.717C255.727 420.15 239.979 420.138 224.331 418.683L136.543 410.518C130.211 409.929 124.829 405.646 122.833 399.608L110.305 361.707Z" fill="#5F59A1"/>
<path d="M139.607 455.531C136.537 444.742 145.233 434.225 156.406 435.214L224.364 441.228C239.132 442.535 253.985 442.556 268.757 441.293L339.215 435.264C350.755 434.276 359.488 445.496 355.699 456.44L343.433 491.866C341.412 497.702 336.212 501.854 330.073 502.534L274.66 508.664C255.982 510.731 237.133 510.734 218.453 508.675L163.358 502.6C156.893 501.888 151.503 497.332 149.723 491.076L139.607 455.531Z" fill="#755CA0"/>
<path d="M221.748 534.52C220.013 529.991 223.96 525.33 228.713 526.296C241.433 528.882 254.539 528.924 267.275 526.421L267.869 526.305C272.788 525.338 276.829 530.196 274.982 534.857L263.108 564.824C257.736 578.382 238.509 578.272 233.292 564.654L221.748 534.52Z" fill="#4275AA"/>
<path d="M248.555 564.827C247.347 564.827 246.367 563.848 246.367 562.639V537.9C246.367 536.692 247.347 535.712 248.555 535.712C249.763 535.712 250.743 536.692 250.743 537.9V562.639C250.743 563.848 249.763 564.827 248.555 564.827ZM248.313 561.482C246.569 561.482 244.897 561.255 243.298 560.801C242.371 560.526 241.55 560.205 240.833 559.84C239.974 559.403 239.717 558.351 240.115 557.473C240.651 556.291 242.141 555.891 243.332 556.405C243.689 556.56 244.062 556.703 244.45 556.836C245.738 557.249 247.036 557.456 248.344 557.456C249.341 557.456 250.141 557.363 250.743 557.177C251.366 556.97 251.823 556.692 252.114 556.341C252.405 555.99 252.55 555.587 252.55 555.133C252.55 554.554 252.321 554.1 251.865 553.77C251.408 553.419 250.805 553.14 250.058 552.934C249.31 552.706 248.479 552.5 247.566 552.314C246.673 552.108 245.769 551.86 244.855 551.571C243.962 551.282 243.142 550.91 242.394 550.456C241.647 550.001 241.034 549.403 240.556 548.659C240.099 547.916 239.871 546.966 239.871 545.81C239.871 544.571 240.203 543.445 240.868 542.434C241.553 541.401 242.571 540.586 243.921 539.987C245.291 539.367 247.005 539.058 249.061 539.058C250.432 539.058 251.781 539.223 253.111 539.553C253.81 539.716 254.465 539.924 255.078 540.179C256.012 540.566 256.352 541.66 255.969 542.596C255.494 543.758 254.109 544.216 252.926 543.797C252.624 543.691 252.322 543.597 252.02 543.518C251.003 543.229 250.006 543.084 249.03 543.084C248.054 543.084 247.254 543.198 246.631 543.425C246.008 543.652 245.561 543.951 245.291 544.323C245.021 544.674 244.886 545.087 244.886 545.562C244.886 546.119 245.115 546.574 245.572 546.925C246.029 547.255 246.631 547.524 247.379 547.73C248.126 547.936 248.947 548.143 249.84 548.349C250.753 548.556 251.657 548.793 252.55 549.062C253.464 549.33 254.294 549.692 255.042 550.146C255.79 550.6 256.392 551.199 256.849 551.942C257.327 552.686 257.565 553.625 257.565 554.761C257.565 555.979 257.223 557.094 256.537 558.106C255.852 559.118 254.824 559.933 253.453 560.553C252.103 561.172 250.39 561.482 248.313 561.482Z" fill="#F8F9FD"/>
<path d="M82.06 71V43H85.02V68.44H100.7V71H82.06ZM113.262 71.2C111.236 71.2 109.409 70.7467 107.782 69.84C106.182 68.9067 104.916 67.64 103.982 66.04C103.049 64.4133 102.582 62.56 102.582 60.48C102.582 58.3733 103.049 56.52 103.982 54.92C104.916 53.32 106.182 52.0667 107.782 51.16C109.382 50.2533 111.209 49.8 113.262 49.8C115.342 49.8 117.182 50.2533 118.782 51.16C120.409 52.0667 121.676 53.32 122.582 54.92C123.516 56.52 123.982 58.3733 123.982 60.48C123.982 62.56 123.516 64.4133 122.582 66.04C121.676 67.64 120.409 68.9067 118.782 69.84C117.156 70.7467 115.316 71.2 113.262 71.2ZM113.262 68.68C114.782 68.68 116.129 68.3467 117.302 67.68C118.476 66.9867 119.396 66.0267 120.062 64.8C120.756 63.5467 121.102 62.1067 121.102 60.48C121.102 58.8267 120.756 57.3867 120.062 56.16C119.396 54.9333 118.476 53.9867 117.302 53.32C116.129 52.6267 114.796 52.28 113.302 52.28C111.809 52.28 110.476 52.6267 109.302 53.32C108.129 53.9867 107.196 54.9333 106.502 56.16C105.809 57.3867 105.462 58.8267 105.462 60.48C105.462 62.1067 105.809 63.5467 106.502 64.8C107.196 66.0267 108.129 66.9867 109.302 67.68C110.476 68.3467 111.796 68.68 113.262 68.68ZM140.5 49.8C142.207 49.8 143.7 50.1333 144.98 50.8C146.287 51.44 147.3 52.4267 148.02 53.76C148.767 55.0933 149.14 56.7733 149.14 58.8V71H146.3V59.08C146.3 56.8667 145.74 55.2 144.62 54.08C143.527 52.9333 141.98 52.36 139.98 52.36C138.487 52.36 137.18 52.6667 136.06 53.28C134.967 53.8667 134.114 54.7333 133.5 55.88C132.914 57 132.62 58.36 132.62 59.96V71H129.78V50H132.5V55.76L132.06 54.68C132.727 53.16 133.794 51.9733 135.26 51.12C136.727 50.24 138.474 49.8 140.5 49.8ZM165.772 78.96C163.852 78.96 162.012 78.68 160.252 78.12C158.492 77.56 157.065 76.76 155.972 75.72L157.412 73.56C158.398 74.44 159.612 75.1333 161.052 75.64C162.518 76.1733 164.065 76.44 165.692 76.44C168.358 76.44 170.318 75.8133 171.572 74.56C172.825 73.3333 173.452 71.4133 173.452 68.8V63.56L173.852 59.96L173.572 56.36V50H176.292V68.44C176.292 72.0667 175.398 74.72 173.612 76.4C171.852 78.1067 169.238 78.96 165.772 78.96ZM165.252 70.2C163.252 70.2 161.452 69.7733 159.852 68.92C158.252 68.04 156.985 66.8267 156.052 65.28C155.145 63.7333 154.692 61.96 154.692 59.96C154.692 57.96 155.145 56.2 156.052 54.68C156.985 53.1333 158.252 51.9333 159.852 51.08C161.452 50.2267 163.252 49.8 165.252 49.8C167.118 49.8 168.798 50.1867 170.292 50.96C171.785 51.7333 172.972 52.88 173.852 54.4C174.732 55.92 175.172 57.7733 175.172 59.96C175.172 62.1467 174.732 64 173.852 65.52C172.972 67.04 171.785 68.2 170.292 69C168.798 69.8 167.118 70.2 165.252 70.2ZM165.532 67.68C167.078 67.68 168.452 67.36 169.652 66.72C170.852 66.0533 171.798 65.1467 172.492 64C173.185 62.8267 173.532 61.48 173.532 59.96C173.532 58.44 173.185 57.1067 172.492 55.96C171.798 54.8133 170.852 53.92 169.652 53.28C168.452 52.6133 167.078 52.28 165.532 52.28C164.012 52.28 162.638 52.6133 161.412 53.28C160.212 53.92 159.265 54.8133 158.572 55.96C157.905 57.1067 157.572 58.44 157.572 59.96C157.572 61.48 157.905 62.8267 158.572 64C159.265 65.1467 160.212 66.0533 161.412 66.72C162.638 67.36 164.012 67.68 165.532 67.68ZM182.634 61.4V58.92H193.114V61.4H182.634ZM204.219 71V45.56H194.379V43H217.019V45.56H207.179V71H204.219ZM227.88 71.2C225.693 71.2 223.773 70.7467 222.12 69.84C220.467 68.9067 219.173 67.64 218.24 66.04C217.307 64.4133 216.84 62.56 216.84 60.48C216.84 58.4 217.28 56.56 218.16 54.96C219.067 53.36 220.293 52.1067 221.84 51.2C223.413 50.2667 225.173 49.8 227.12 49.8C229.093 49.8 230.84 50.2533 232.36 51.16C233.907 52.04 235.12 53.2933 236 54.92C236.88 56.52 237.32 58.3733 237.32 60.48C237.32 60.6133 237.307 60.76 237.28 60.92C237.28 61.0533 237.28 61.2 237.28 61.36H219V59.24H235.76L234.64 60.08C234.64 58.56 234.307 57.2133 233.64 56.04C233 54.84 232.12 53.9067 231 53.24C229.88 52.5733 228.587 52.24 227.12 52.24C225.68 52.24 224.387 52.5733 223.24 53.24C222.093 53.9067 221.2 54.84 220.56 56.04C219.92 57.24 219.6 58.6133 219.6 60.16V60.6C219.6 62.2 219.947 63.6133 220.64 64.84C221.36 66.04 222.347 66.9867 223.6 67.68C224.88 68.3467 226.333 68.68 227.96 68.68C229.24 68.68 230.427 68.4533 231.52 68C232.64 67.5467 233.6 66.8533 234.4 65.92L236 67.76C235.067 68.88 233.893 69.7333 232.48 70.32C231.093 70.9067 229.56 71.2 227.88 71.2ZM243.101 71V50H245.821V55.72L245.541 54.72C246.127 53.12 247.114 51.9067 248.501 51.08C249.887 50.2267 251.607 49.8 253.661 49.8V52.56C253.554 52.56 253.447 52.56 253.341 52.56C253.234 52.5333 253.127 52.52 253.021 52.52C250.807 52.52 249.074 53.2 247.821 54.56C246.567 55.8933 245.941 57.8 245.941 60.28V71H243.101ZM285.083 49.8C286.789 49.8 288.269 50.1333 289.523 50.8C290.803 51.44 291.789 52.4267 292.483 53.76C293.203 55.0933 293.563 56.7733 293.563 58.8V71H290.723V59.08C290.723 56.8667 290.189 55.2 289.123 54.08C288.083 52.9333 286.603 52.36 284.683 52.36C283.243 52.36 281.989 52.6667 280.923 53.28C279.883 53.8667 279.069 54.7333 278.483 55.88C277.923 57 277.643 58.36 277.643 59.96V71H274.803V59.08C274.803 56.8667 274.269 55.2 273.203 54.08C272.136 52.9333 270.643 52.36 268.723 52.36C267.309 52.36 266.069 52.6667 265.003 53.28C263.936 53.8667 263.109 54.7333 262.523 55.88C261.963 57 261.683 58.36 261.683 59.96V71H258.843V50H261.563V55.68L261.123 54.68C261.763 53.16 262.789 51.9733 264.203 51.12C265.643 50.24 267.336 49.8 269.283 49.8C271.336 49.8 273.083 50.32 274.523 51.36C275.963 52.3733 276.896 53.9067 277.323 55.96L276.203 55.52C276.816 53.8133 277.896 52.44 279.443 51.4C281.016 50.3333 282.896 49.8 285.083 49.8ZM320.293 71L307.893 43H311.093L322.693 69.36H320.933L332.613 43H335.613L323.213 71H320.293ZM350.636 71V66.36L350.516 65.6V57.84C350.516 56.0533 350.009 54.68 348.996 53.72C348.009 52.76 346.529 52.28 344.556 52.28C343.196 52.28 341.902 52.5067 340.676 52.96C339.449 53.4133 338.409 54.0133 337.556 54.76L336.276 52.64C337.342 51.7333 338.622 51.04 340.116 50.56C341.609 50.0533 343.182 49.8 344.836 49.8C347.556 49.8 349.649 50.48 351.116 51.84C352.609 53.1733 353.356 55.2133 353.356 57.96V71H350.636ZM343.396 71.2C341.822 71.2 340.449 70.9467 339.276 70.44C338.129 69.9067 337.249 69.1867 336.636 68.28C336.022 67.3467 335.716 66.28 335.716 65.08C335.716 63.9867 335.969 63 336.476 62.12C337.009 61.2133 337.862 60.4933 339.036 59.96C340.236 59.4 341.836 59.12 343.836 59.12H351.076V61.24H343.916C341.889 61.24 340.476 61.6 339.676 62.32C338.902 63.04 338.516 63.9333 338.516 65C338.516 66.2 338.982 67.16 339.916 67.88C340.849 68.6 342.156 68.96 343.836 68.96C345.436 68.96 346.809 68.6 347.956 67.88C349.129 67.1333 349.982 66.0667 350.516 64.68L351.156 66.64C350.622 68.0267 349.689 69.1333 348.356 69.96C347.049 70.7867 345.396 71.2 343.396 71.2ZM361.069 71V41.32H363.909V71H361.069ZM380.492 71.2C378.705 71.2 377.145 70.8667 375.812 70.2C374.478 69.5333 373.438 68.5333 372.692 67.2C371.972 65.8667 371.612 64.2 371.612 62.2V50H374.452V61.88C374.452 64.12 374.998 65.8133 376.092 66.96C377.212 68.08 378.772 68.64 380.772 68.64C382.238 68.64 383.505 68.3467 384.572 67.76C385.665 67.1467 386.492 66.2667 387.052 65.12C387.638 63.9733 387.932 62.6 387.932 61V50H390.772V71H388.052V65.24L388.492 66.28C387.825 67.8267 386.785 69.04 385.372 69.92C383.985 70.7733 382.358 71.2 380.492 71.2ZM407.607 71.2C405.42 71.2 403.5 70.7467 401.847 69.84C400.193 68.9067 398.9 67.64 397.967 66.04C397.033 64.4133 396.567 62.56 396.567 60.48C396.567 58.4 397.007 56.56 397.887 54.96C398.793 53.36 400.02 52.1067 401.567 51.2C403.14 50.2667 404.9 49.8 406.847 49.8C408.82 49.8 410.567 50.2533 412.087 51.16C413.633 52.04 414.847 53.2933 415.727 54.92C416.607 56.52 417.047 58.3733 417.047 60.48C417.047 60.6133 417.033 60.76 417.007 60.92C417.007 61.0533 417.007 61.2 417.007 61.36H398.727V59.24H415.487L414.367 60.08C414.367 58.56 414.033 57.2133 413.367 56.04C412.727 54.84 411.847 53.9067 410.727 53.24C409.607 52.5733 408.313 52.24 406.847 52.24C405.407 52.24 404.113 52.5733 402.967 53.24C401.82 53.9067 400.927 54.84 400.287 56.04C399.647 57.24 399.327 58.6133 399.327 60.16V60.6C399.327 62.2 399.673 63.6133 400.367 64.84C401.087 66.04 402.073 66.9867 403.327 67.68C404.607 68.3467 406.06 68.68 407.687 68.68C408.967 68.68 410.153 68.4533 411.247 68C412.367 67.5467 413.327 66.8533 414.127 65.92L415.727 67.76C414.793 68.88 413.62 69.7333 412.207 70.32C410.82 70.9067 409.287 71.2 407.607 71.2Z" fill="#F8F9FD"/>
<path d="M168.588 301.168C166.087 301.168 164.117 300.449 162.68 299.012C161.243 297.575 160.524 295.447 160.524 292.628V281.4H162.596V292.544C162.596 294.859 163.119 296.567 164.164 297.668C165.209 298.769 166.684 299.32 168.588 299.32C170.511 299.32 171.995 298.769 173.04 297.668C174.085 296.567 174.608 294.859 174.608 292.544V281.4H176.624V292.628C176.624 295.447 175.905 297.575 174.468 299.012C173.049 300.449 171.089 301.168 168.588 301.168ZM190.036 301.14C188.766 301.14 187.618 300.851 186.592 300.272C185.565 299.675 184.744 298.825 184.128 297.724C183.53 296.604 183.232 295.241 183.232 293.636C183.232 292.031 183.53 290.677 184.128 289.576C184.725 288.456 185.537 287.607 186.564 287.028C187.59 286.449 188.748 286.16 190.036 286.16C191.436 286.16 192.686 286.477 193.788 287.112C194.908 287.728 195.785 288.605 196.42 289.744C197.054 290.864 197.372 292.161 197.372 293.636C197.372 295.129 197.054 296.436 196.42 297.556C195.785 298.676 194.908 299.553 193.788 300.188C192.686 300.823 191.436 301.14 190.036 301.14ZM182.448 306.432V286.3H184.352V290.724L184.156 293.664L184.436 296.632V306.432H182.448ZM189.896 299.376C190.941 299.376 191.874 299.143 192.696 298.676C193.517 298.191 194.17 297.519 194.656 296.66C195.141 295.783 195.384 294.775 195.384 293.636C195.384 292.497 195.141 291.499 194.656 290.64C194.17 289.781 193.517 289.109 192.696 288.624C191.874 288.139 190.941 287.896 189.896 287.896C188.85 287.896 187.908 288.139 187.068 288.624C186.246 289.109 185.593 289.781 185.108 290.64C184.641 291.499 184.408 292.497 184.408 293.636C184.408 294.775 184.641 295.783 185.108 296.66C185.593 297.519 186.246 298.191 187.068 298.676C187.908 299.143 188.85 299.376 189.896 299.376ZM201.424 301V280.224H203.412V301H201.424ZM208.944 301V286.3H210.932V301H208.944ZM209.952 283.052C209.541 283.052 209.196 282.912 208.916 282.632C208.636 282.352 208.496 282.016 208.496 281.624C208.496 281.232 208.636 280.905 208.916 280.644C209.196 280.364 209.541 280.224 209.952 280.224C210.363 280.224 210.708 280.355 210.988 280.616C211.268 280.877 211.408 281.204 211.408 281.596C211.408 282.007 211.268 282.352 210.988 282.632C210.727 282.912 210.381 283.052 209.952 283.052ZM216.799 301V284.452C216.799 283.145 217.182 282.091 217.947 281.288C218.713 280.485 219.814 280.084 221.251 280.084C221.811 280.084 222.353 280.159 222.875 280.308C223.398 280.457 223.837 280.691 224.191 281.008L223.519 282.492C223.239 282.249 222.913 282.072 222.539 281.96C222.166 281.829 221.765 281.764 221.335 281.764C220.495 281.764 219.851 281.997 219.403 282.464C218.955 282.931 218.731 283.621 218.731 284.536V286.776L218.787 287.7V301H216.799ZM214.167 287.952V286.3H223.267V287.952H214.167ZM230.6 301.14C229.218 301.14 228.154 300.767 227.408 300.02C226.661 299.273 226.288 298.219 226.288 296.856V283.052H228.276V296.744C228.276 297.603 228.49 298.265 228.92 298.732C229.368 299.199 230.002 299.432 230.824 299.432C231.701 299.432 232.429 299.18 233.008 298.676L233.708 300.104C233.316 300.459 232.84 300.72 232.28 300.888C231.738 301.056 231.178 301.14 230.6 301.14ZM223.656 287.952V286.3H232.756V287.952H223.656ZM245.075 301V281.4H246.783L255.743 296.688H254.847L263.723 281.4H265.431V301H263.443V284.508H263.919L255.743 298.508H254.763L246.531 284.508H247.063V301H245.075ZM277.389 301.14C275.97 301.14 274.692 300.823 273.553 300.188C272.433 299.535 271.546 298.648 270.893 297.528C270.24 296.389 269.913 295.092 269.913 293.636C269.913 292.161 270.24 290.864 270.893 289.744C271.546 288.624 272.433 287.747 273.553 287.112C274.673 286.477 275.952 286.16 277.389 286.16C278.845 286.16 280.133 286.477 281.253 287.112C282.392 287.747 283.278 288.624 283.913 289.744C284.566 290.864 284.893 292.161 284.893 293.636C284.893 295.092 284.566 296.389 283.913 297.528C283.278 298.648 282.392 299.535 281.253 300.188C280.114 300.823 278.826 301.14 277.389 301.14ZM277.389 299.376C278.453 299.376 279.396 299.143 280.217 298.676C281.038 298.191 281.682 297.519 282.149 296.66C282.634 295.783 282.877 294.775 282.877 293.636C282.877 292.479 282.634 291.471 282.149 290.612C281.682 289.753 281.038 289.091 280.217 288.624C279.396 288.139 278.462 287.896 277.417 287.896C276.372 287.896 275.438 288.139 274.617 288.624C273.796 289.091 273.142 289.753 272.657 290.612C272.172 291.471 271.929 292.479 271.929 293.636C271.929 294.775 272.172 295.783 272.657 296.66C273.142 297.519 273.796 298.191 274.617 298.676C275.438 299.143 276.362 299.376 277.389 299.376ZM294.804 301.14C293.404 301.14 292.144 300.823 291.024 300.188C289.922 299.553 289.054 298.676 288.42 297.556C287.785 296.417 287.468 295.111 287.468 293.636C287.468 292.143 287.785 290.836 288.42 289.716C289.054 288.596 289.922 287.728 291.024 287.112C292.144 286.477 293.404 286.16 294.804 286.16C296.092 286.16 297.24 286.449 298.248 287.028C299.274 287.607 300.086 288.456 300.684 289.576C301.3 290.677 301.608 292.031 301.608 293.636C301.608 295.223 301.309 296.576 300.712 297.696C300.114 298.816 299.302 299.675 298.276 300.272C297.268 300.851 296.11 301.14 294.804 301.14ZM294.944 299.376C295.989 299.376 296.922 299.143 297.744 298.676C298.584 298.191 299.237 297.519 299.704 296.66C300.189 295.783 300.432 294.775 300.432 293.636C300.432 292.479 300.189 291.471 299.704 290.612C299.237 289.753 298.584 289.091 297.744 288.624C296.922 288.139 295.989 287.896 294.944 287.896C293.917 287.896 292.993 288.139 292.172 288.624C291.35 289.091 290.697 289.753 290.212 290.612C289.726 291.471 289.484 292.479 289.484 293.636C289.484 294.775 289.726 295.783 290.212 296.66C290.697 297.519 291.35 298.191 292.172 298.676C292.993 299.143 293.917 299.376 294.944 299.376ZM300.488 301V296.576L300.684 293.608L300.404 290.64V280.224H302.392V301H300.488ZM314.172 301.14C312.642 301.14 311.298 300.823 310.14 300.188C308.983 299.535 308.078 298.648 307.424 297.528C306.771 296.389 306.444 295.092 306.444 293.636C306.444 292.18 306.752 290.892 307.368 289.772C308.003 288.652 308.862 287.775 309.944 287.14C311.046 286.487 312.278 286.16 313.64 286.16C315.022 286.16 316.244 286.477 317.308 287.112C318.391 287.728 319.24 288.605 319.856 289.744C320.472 290.864 320.78 292.161 320.78 293.636C320.78 293.729 320.771 293.832 320.752 293.944C320.752 294.037 320.752 294.14 320.752 294.252H307.956V292.768H319.688L318.904 293.356C318.904 292.292 318.671 291.349 318.204 290.528C317.756 289.688 317.14 289.035 316.356 288.568C315.572 288.101 314.667 287.868 313.64 287.868C312.632 287.868 311.727 288.101 310.924 288.568C310.122 289.035 309.496 289.688 309.048 290.528C308.6 291.368 308.376 292.329 308.376 293.412V293.72C308.376 294.84 308.619 295.829 309.104 296.688C309.608 297.528 310.299 298.191 311.176 298.676C312.072 299.143 313.09 299.376 314.228 299.376C315.124 299.376 315.955 299.217 316.72 298.9C317.504 298.583 318.176 298.097 318.736 297.444L319.856 298.732C319.203 299.516 318.382 300.113 317.392 300.524C316.422 300.935 315.348 301.14 314.172 301.14ZM324.827 301V280.224H326.815V301H324.827ZM336.294 301.14C335.081 301.14 333.933 300.972 332.85 300.636C331.768 300.281 330.918 299.843 330.302 299.32L331.198 297.752C331.796 298.2 332.561 298.592 333.494 298.928C334.428 299.245 335.408 299.404 336.434 299.404C337.834 299.404 338.842 299.189 339.458 298.76C340.074 298.312 340.382 297.724 340.382 296.996C340.382 296.455 340.205 296.035 339.85 295.736C339.514 295.419 339.066 295.185 338.506 295.036C337.946 294.868 337.321 294.728 336.63 294.616C335.94 294.504 335.249 294.373 334.558 294.224C333.886 294.075 333.27 293.86 332.71 293.58C332.15 293.281 331.693 292.88 331.338 292.376C331.002 291.872 330.834 291.2 330.834 290.36C330.834 289.557 331.058 288.839 331.506 288.204C331.954 287.569 332.608 287.075 333.466 286.72C334.344 286.347 335.408 286.16 336.658 286.16C337.61 286.16 338.562 286.291 339.514 286.552C340.466 286.795 341.25 287.121 341.866 287.532L340.998 289.128C340.345 288.68 339.645 288.363 338.898 288.176C338.152 287.971 337.405 287.868 336.658 287.868C335.333 287.868 334.353 288.101 333.718 288.568C333.102 289.016 332.794 289.595 332.794 290.304C332.794 290.864 332.962 291.303 333.298 291.62C333.653 291.937 334.11 292.189 334.67 292.376C335.249 292.544 335.874 292.684 336.546 292.796C337.237 292.908 337.918 293.048 338.59 293.216C339.281 293.365 339.906 293.58 340.466 293.86C341.045 294.121 341.502 294.504 341.838 295.008C342.193 295.493 342.37 296.137 342.37 296.94C342.37 297.799 342.128 298.545 341.642 299.18C341.176 299.796 340.485 300.281 339.57 300.636C338.674 300.972 337.582 301.14 336.294 301.14Z" fill="#F8F9FD"/>
<path d="M97.148 193V170.6H105.532C107.431 170.6 109.063 170.909 110.428 171.528C111.793 172.125 112.839 173 113.564 174.152C114.311 175.283 114.684 176.659 114.684 178.28C114.684 179.859 114.311 181.224 113.564 182.376C112.839 183.507 111.793 184.381 110.428 185C109.063 185.619 107.431 185.928 105.532 185.928H98.46L99.516 184.808V193H97.148ZM99.516 185L98.46 183.848H105.468C107.708 183.848 109.404 183.368 110.556 182.408C111.729 181.427 112.316 180.051 112.316 178.28C112.316 176.488 111.729 175.101 110.556 174.12C109.404 173.139 107.708 172.648 105.468 172.648H98.46L99.516 171.528V185ZM126.079 193.16C124.457 193.16 122.996 192.797 121.695 192.072C120.415 191.325 119.401 190.312 118.655 189.032C117.908 187.731 117.535 186.248 117.535 184.584C117.535 182.899 117.908 181.416 118.655 180.136C119.401 178.856 120.415 177.853 121.695 177.128C122.975 176.403 124.436 176.04 126.079 176.04C127.743 176.04 129.215 176.403 130.495 177.128C131.796 177.853 132.809 178.856 133.535 180.136C134.281 181.416 134.655 182.899 134.655 184.584C134.655 186.248 134.281 187.731 133.535 189.032C132.809 190.312 131.796 191.325 130.495 192.072C129.193 192.797 127.721 193.16 126.079 193.16ZM126.079 191.144C127.295 191.144 128.372 190.877 129.311 190.344C130.249 189.789 130.985 189.021 131.519 188.04C132.073 187.037 132.351 185.885 132.351 184.584C132.351 183.261 132.073 182.109 131.519 181.128C130.985 180.147 130.249 179.389 129.311 178.856C128.372 178.301 127.305 178.024 126.111 178.024C124.916 178.024 123.849 178.301 122.911 178.856C121.972 179.389 121.225 180.147 120.671 181.128C120.116 182.109 119.839 183.261 119.839 184.584C119.839 185.885 120.116 187.037 120.671 188.04C121.225 189.021 121.972 189.789 122.911 190.344C123.849 190.877 124.905 191.144 126.079 191.144ZM142.248 193L135.912 176.2H138.088L143.848 191.784H142.856L148.776 176.2H150.728L156.584 191.784H155.592L161.448 176.2H163.528L157.16 193H155.016L149.384 178.344H150.056L144.392 193H142.248ZM173.617 193.16C171.867 193.16 170.331 192.797 169.009 192.072C167.686 191.325 166.651 190.312 165.905 189.032C165.158 187.731 164.785 186.248 164.785 184.584C164.785 182.92 165.137 181.448 165.841 180.168C166.566 178.888 167.547 177.885 168.785 177.16C170.043 176.413 171.451 176.04 173.009 176.04C174.587 176.04 175.985 176.403 177.201 177.128C178.438 177.832 179.409 178.835 180.113 180.136C180.817 181.416 181.169 182.899 181.169 184.584C181.169 184.691 181.158 184.808 181.137 184.936C181.137 185.043 181.137 185.16 181.137 185.288H166.513V183.592H179.921L179.025 184.264C179.025 183.048 178.758 181.971 178.225 181.032C177.713 180.072 177.009 179.325 176.113 178.792C175.217 178.259 174.182 177.992 173.009 177.992C171.857 177.992 170.822 178.259 169.905 178.792C168.987 179.325 168.273 180.072 167.761 181.032C167.249 181.992 166.993 183.091 166.993 184.328V184.68C166.993 185.96 167.27 187.091 167.825 188.072C168.401 189.032 169.19 189.789 170.193 190.344C171.217 190.877 172.379 191.144 173.681 191.144C174.705 191.144 175.654 190.963 176.529 190.6C177.425 190.237 178.193 189.683 178.833 188.936L180.113 190.408C179.366 191.304 178.427 191.987 177.297 192.456C176.187 192.925 174.961 193.16 173.617 193.16ZM185.793 193V176.2H187.969V180.776L187.745 179.976C188.214 178.696 189.004 177.725 190.113 177.064C191.222 176.381 192.598 176.04 194.241 176.04V178.248C194.156 178.248 194.07 178.248 193.985 178.248C193.9 178.227 193.814 178.216 193.729 178.216C191.958 178.216 190.572 178.76 189.569 179.848C188.566 180.915 188.065 182.44 188.065 184.424V193H185.793ZM199.021 193V174.088C199.021 172.595 199.458 171.389 200.333 170.472C201.207 169.555 202.466 169.096 204.109 169.096C204.749 169.096 205.367 169.181 205.965 169.352C206.562 169.523 207.063 169.789 207.469 170.152L206.701 171.848C206.381 171.571 206.007 171.368 205.581 171.24C205.154 171.091 204.695 171.016 204.205 171.016C203.245 171.016 202.509 171.283 201.997 171.816C201.485 172.349 201.229 173.139 201.229 174.184V176.744L201.293 177.8V193H199.021ZM196.013 178.088V176.2H206.413V178.088H196.013ZM216.425 193.16C214.995 193.16 213.747 192.893 212.681 192.36C211.614 191.827 210.782 191.027 210.185 189.96C209.609 188.893 209.321 187.56 209.321 185.96V176.2H211.593V185.704C211.593 187.496 212.03 188.851 212.905 189.768C213.801 190.664 215.049 191.112 216.649 191.112C217.822 191.112 218.835 190.877 219.689 190.408C220.563 189.917 221.225 189.213 221.673 188.296C222.142 187.379 222.377 186.28 222.377 185V176.2H224.649V193H222.472V188.392L222.825 189.224C222.291 190.461 221.459 191.432 220.329 192.136C219.219 192.819 217.918 193.16 216.425 193.16ZM230.981 193V169.256H233.253V193H230.981ZM248.429 193V170.6H256.813C258.712 170.6 260.344 170.909 261.709 171.528C263.075 172.125 264.12 173 264.845 174.152C265.592 175.283 265.965 176.659 265.965 178.28C265.965 179.859 265.592 181.224 264.845 182.376C264.12 183.507 263.075 184.381 261.709 185C260.344 185.597 258.712 185.896 256.813 185.896H249.741L250.797 184.808V193H248.429ZM263.725 193L257.965 184.872H260.525L266.317 193H263.725ZM250.797 185L249.741 183.88H256.749C258.989 183.88 260.685 183.389 261.837 182.408C263.011 181.427 263.597 180.051 263.597 178.28C263.597 176.488 263.011 175.101 261.837 174.12C260.685 173.139 258.989 172.648 256.749 172.648H249.741L250.797 171.528V185ZM278.21 193.16C276.461 193.16 274.925 192.797 273.602 192.072C272.28 191.325 271.245 190.312 270.498 189.032C269.752 187.731 269.378 186.248 269.378 184.584C269.378 182.92 269.73 181.448 270.434 180.168C271.16 178.888 272.141 177.885 273.378 177.16C274.637 176.413 276.045 176.04 277.602 176.04C279.181 176.04 280.578 176.403 281.794 177.128C283.032 177.832 284.002 178.835 284.706 180.136C285.41 181.416 285.762 182.899 285.762 184.584C285.762 184.691 285.752 184.808 285.73 184.936C285.73 185.043 285.73 185.16 285.73 185.288H271.106V183.592H284.514L283.618 184.264C283.618 183.048 283.352 181.971 282.818 181.032C282.306 180.072 281.602 179.325 280.706 178.792C279.81 178.259 278.776 177.992 277.602 177.992C276.45 177.992 275.416 178.259 274.498 178.792C273.581 179.325 272.866 180.072 272.354 181.032C271.842 181.992 271.586 183.091 271.586 184.328V184.68C271.586 185.96 271.864 187.091 272.418 188.072C272.994 189.032 273.784 189.789 274.786 190.344C275.81 190.877 276.973 191.144 278.274 191.144C279.298 191.144 280.248 190.963 281.122 190.6C282.018 190.237 282.786 189.683 283.426 188.936L284.706 190.408C283.96 191.304 283.021 191.987 281.89 192.456C280.781 192.925 279.554 193.16 278.21 193.16ZM294.899 193.16C293.512 193.16 292.2 192.968 290.963 192.584C289.725 192.179 288.755 191.677 288.051 191.08L289.075 189.288C289.757 189.8 290.632 190.248 291.699 190.632C292.765 190.995 293.885 191.176 295.059 191.176C296.659 191.176 297.811 190.931 298.515 190.44C299.219 189.928 299.571 189.256 299.571 188.424C299.571 187.805 299.368 187.325 298.963 186.984C298.579 186.621 298.067 186.355 297.427 186.184C296.787 185.992 296.072 185.832 295.283 185.704C294.493 185.576 293.704 185.427 292.915 185.256C292.147 185.085 291.443 184.84 290.803 184.52C290.163 184.179 289.64 183.72 289.235 183.144C288.851 182.568 288.659 181.8 288.659 180.84C288.659 179.923 288.915 179.101 289.427 178.376C289.939 177.651 290.685 177.085 291.667 176.68C292.669 176.253 293.885 176.04 295.315 176.04C296.403 176.04 297.491 176.189 298.579 176.488C299.667 176.765 300.563 177.139 301.267 177.608L300.275 179.432C299.528 178.92 298.728 178.557 297.875 178.344C297.021 178.109 296.168 177.992 295.315 177.992C293.8 177.992 292.68 178.259 291.955 178.792C291.251 179.304 290.899 179.965 290.899 180.776C290.899 181.416 291.091 181.917 291.475 182.28C291.88 182.643 292.403 182.931 293.043 183.144C293.704 183.336 294.419 183.496 295.187 183.624C295.976 183.752 296.755 183.912 297.523 184.104C298.312 184.275 299.027 184.52 299.667 184.84C300.328 185.139 300.851 185.576 301.235 186.152C301.64 186.707 301.843 187.443 301.843 188.36C301.843 189.341 301.565 190.195 301.011 190.92C300.477 191.624 299.688 192.179 298.643 192.584C297.619 192.968 296.371 193.16 294.899 193.16ZM314.684 193.16C313.233 193.16 311.921 192.829 310.748 192.168C309.574 191.485 308.636 190.515 307.932 189.256C307.249 187.976 306.908 186.419 306.908 184.584C306.908 182.749 307.249 181.203 307.932 179.944C308.614 178.664 309.542 177.693 310.716 177.032C311.889 176.371 313.212 176.04 314.684 176.04C316.284 176.04 317.713 176.403 318.972 177.128C320.252 177.832 321.254 178.835 321.98 180.136C322.705 181.416 323.068 182.899 323.068 184.584C323.068 186.291 322.705 187.784 321.98 189.064C321.254 190.344 320.252 191.347 318.972 192.072C317.713 192.797 316.284 193.16 314.684 193.16ZM306.012 199.208V176.2H308.188V181.256L307.964 184.616L308.284 188.008V199.208H306.012ZM314.524 191.144C315.718 191.144 316.785 190.877 317.724 190.344C318.662 189.789 319.409 189.021 319.964 188.04C320.518 187.037 320.796 185.885 320.796 184.584C320.796 183.283 320.518 182.141 319.964 181.16C319.409 180.179 318.662 179.411 317.724 178.856C316.785 178.301 315.718 178.024 314.524 178.024C313.329 178.024 312.252 178.301 311.292 178.856C310.353 179.411 309.606 180.179 309.052 181.16C308.518 182.141 308.252 183.283 308.252 184.584C308.252 185.885 308.518 187.037 309.052 188.04C309.606 189.021 310.353 189.789 311.292 190.344C312.252 190.877 313.329 191.144 314.524 191.144ZM334.547 193.16C332.926 193.16 331.465 192.797 330.163 192.072C328.883 191.325 327.87 190.312 327.123 189.032C326.377 187.731 326.003 186.248 326.003 184.584C326.003 182.899 326.377 181.416 327.123 180.136C327.87 178.856 328.883 177.853 330.163 177.128C331.443 176.403 332.905 176.04 334.547 176.04C336.211 176.04 337.683 176.403 338.963 177.128C340.265 177.853 341.278 178.856 342.003 180.136C342.75 181.416 343.123 182.899 343.123 184.584C343.123 186.248 342.75 187.731 342.003 189.032C341.278 190.312 340.265 191.325 338.963 192.072C337.662 192.797 336.19 193.16 334.547 193.16ZM334.547 191.144C335.763 191.144 336.841 190.877 337.779 190.344C338.718 189.789 339.454 189.021 339.987 188.04C340.542 187.037 340.819 185.885 340.819 184.584C340.819 183.261 340.542 182.109 339.987 181.128C339.454 180.147 338.718 179.389 337.779 178.856C336.841 178.301 335.774 178.024 334.579 178.024C333.385 178.024 332.318 178.301 331.379 178.856C330.441 179.389 329.694 180.147 329.139 181.128C328.585 182.109 328.307 183.261 328.307 184.584C328.307 185.885 328.585 187.037 329.139 188.04C329.694 189.021 330.441 189.789 331.379 190.344C332.318 190.877 333.374 191.144 334.547 191.144ZM356.338 176.04C357.703 176.04 358.898 176.307 359.922 176.84C360.967 177.352 361.778 178.141 362.354 179.208C362.951 180.275 363.25 181.619 363.25 183.24V193H360.978V183.464C360.978 181.693 360.53 180.36 359.634 179.464C358.759 178.547 357.522 178.088 355.922 178.088C354.727 178.088 353.682 178.333 352.786 178.824C351.911 179.293 351.228 179.987 350.738 180.904C350.268 181.8 350.034 182.888 350.034 184.168V193H347.762V176.2H349.938V180.808L349.586 179.944C350.119 178.728 350.972 177.779 352.146 177.096C353.319 176.392 354.716 176.04 356.338 176.04ZM373.899 193.16C372.512 193.16 371.2 192.968 369.963 192.584C368.725 192.179 367.755 191.677 367.051 191.08L368.075 189.288C368.757 189.8 369.632 190.248 370.699 190.632C371.765 190.995 372.885 191.176 374.059 191.176C375.659 191.176 376.811 190.931 377.515 190.44C378.219 189.928 378.571 189.256 378.571 188.424C378.571 187.805 378.368 187.325 377.963 186.984C377.579 186.621 377.067 186.355 376.427 186.184C375.787 185.992 375.072 185.832 374.283 185.704C373.493 185.576 372.704 185.427 371.915 185.256C371.147 185.085 370.443 184.84 369.803 184.52C369.163 184.179 368.64 183.72 368.235 183.144C367.851 182.568 367.659 181.8 367.659 180.84C367.659 179.923 367.915 179.101 368.427 178.376C368.939 177.651 369.685 177.085 370.667 176.68C371.669 176.253 372.885 176.04 374.315 176.04C375.403 176.04 376.491 176.189 377.579 176.488C378.667 176.765 379.563 177.139 380.267 177.608L379.275 179.432C378.528 178.92 377.728 178.557 376.875 178.344C376.021 178.109 375.168 177.992 374.315 177.992C372.8 177.992 371.68 178.259 370.955 178.792C370.251 179.304 369.899 179.965 369.899 180.776C369.899 181.416 370.091 181.917 370.475 182.28C370.88 182.643 371.403 182.931 372.043 183.144C372.704 183.336 373.419 183.496 374.187 183.624C374.976 183.752 375.755 183.912 376.523 184.104C377.312 184.275 378.027 184.52 378.667 184.84C379.328 185.139 379.851 185.576 380.235 186.152C380.64 186.707 380.843 187.443 380.843 188.36C380.843 189.341 380.565 190.195 380.011 190.92C379.477 191.624 378.688 192.179 377.643 192.584C376.619 192.968 375.371 193.16 373.899 193.16ZM392.148 193.16C390.398 193.16 388.862 192.797 387.54 192.072C386.217 191.325 385.182 190.312 384.436 189.032C383.689 187.731 383.316 186.248 383.316 184.584C383.316 182.92 383.668 181.448 384.372 180.168C385.097 178.888 386.078 177.885 387.316 177.16C388.574 176.413 389.982 176.04 391.54 176.04C393.118 176.04 394.516 176.403 395.732 177.128C396.969 177.832 397.94 178.835 398.644 180.136C399.348 181.416 399.7 182.899 399.7 184.584C399.7 184.691 399.689 184.808 399.668 184.936C399.668 185.043 399.668 185.16 399.668 185.288H385.044V183.592H398.452L397.556 184.264C397.556 183.048 397.289 181.971 396.756 181.032C396.244 180.072 395.54 179.325 394.644 178.792C393.748 178.259 392.713 177.992 391.54 177.992C390.388 177.992 389.353 178.259 388.436 178.792C387.518 179.325 386.804 180.072 386.292 181.032C385.78 181.992 385.524 183.091 385.524 184.328V184.68C385.524 185.96 385.801 187.091 386.356 188.072C386.932 189.032 387.721 189.789 388.724 190.344C389.748 190.877 390.91 191.144 392.212 191.144C393.236 191.144 394.185 190.963 395.06 190.6C395.956 190.237 396.724 189.683 397.364 188.936L398.644 190.408C397.897 191.304 396.958 191.987 395.828 192.456C394.718 192.925 393.492 193.16 392.148 193.16Z" fill="#F8F9FD"/>
<path d="M174.792 395.64V374.96H175.892V395.64H174.792ZM175.254 393.132C174.11 393.132 173.01 392.949 171.954 392.582C170.913 392.201 170.106 391.717 169.534 391.13L170.172 389.876C170.715 390.404 171.441 390.851 172.35 391.218C173.274 391.57 174.242 391.746 175.254 391.746C176.222 391.746 177.007 391.629 177.608 391.394C178.224 391.145 178.671 390.815 178.95 390.404C179.243 389.993 179.39 389.539 179.39 389.04C179.39 388.439 179.214 387.955 178.862 387.588C178.525 387.221 178.077 386.935 177.52 386.73C176.963 386.51 176.347 386.319 175.672 386.158C174.997 385.997 174.323 385.828 173.648 385.652C172.973 385.461 172.35 385.212 171.778 384.904C171.221 384.596 170.766 384.193 170.414 383.694C170.077 383.181 169.908 382.513 169.908 381.692C169.908 380.929 170.106 380.233 170.502 379.602C170.913 378.957 171.536 378.443 172.372 378.062C173.208 377.666 174.279 377.468 175.584 377.468C176.449 377.468 177.307 377.593 178.158 377.842C179.009 378.077 179.742 378.407 180.358 378.832L179.808 380.13C179.148 379.69 178.444 379.367 177.696 379.162C176.963 378.957 176.251 378.854 175.562 378.854C174.638 378.854 173.875 378.979 173.274 379.228C172.673 379.477 172.225 379.815 171.932 380.24C171.653 380.651 171.514 381.12 171.514 381.648C171.514 382.249 171.683 382.733 172.02 383.1C172.372 383.467 172.827 383.753 173.384 383.958C173.956 384.163 174.579 384.347 175.254 384.508C175.929 384.669 176.596 384.845 177.256 385.036C177.931 385.227 178.547 385.476 179.104 385.784C179.676 386.077 180.131 386.473 180.468 386.972C180.82 387.471 180.996 388.123 180.996 388.93C180.996 389.678 180.791 390.375 180.38 391.02C179.969 391.651 179.339 392.164 178.488 392.56C177.652 392.941 176.574 393.132 175.254 393.132ZM185.648 393V378.26L186.352 379.008H182.018V377.6H187.232V393H185.648ZM192.278 393V377.6H193.62L200.66 389.612H199.956L206.93 377.6H208.272V393H206.71V380.042H207.084L200.66 391.042H199.89L193.422 380.042H193.84V393H192.278ZM224.679 393.11C223.682 393.11 222.78 392.883 221.973 392.428C221.166 391.959 220.521 391.291 220.037 390.426C219.568 389.546 219.333 388.475 219.333 387.214C219.333 385.953 219.568 384.889 220.037 384.024C220.506 383.144 221.144 382.477 221.951 382.022C222.758 381.567 223.667 381.34 224.679 381.34C225.779 381.34 226.762 381.589 227.627 382.088C228.507 382.572 229.196 383.261 229.695 384.156C230.194 385.036 230.443 386.055 230.443 387.214C230.443 388.387 230.194 389.414 229.695 390.294C229.196 391.174 228.507 391.863 227.627 392.362C226.762 392.861 225.779 393.11 224.679 393.11ZM218.717 397.268V381.45H220.213V384.926L220.059 387.236L220.279 389.568V397.268H218.717ZM224.569 391.724C225.39 391.724 226.124 391.541 226.769 391.174C227.414 390.793 227.928 390.265 228.309 389.59C228.69 388.901 228.881 388.109 228.881 387.214C228.881 386.319 228.69 385.535 228.309 384.86C227.928 384.185 227.414 383.657 226.769 383.276C226.124 382.895 225.39 382.704 224.569 382.704C223.748 382.704 223.007 382.895 222.347 383.276C221.702 383.657 221.188 384.185 220.807 384.86C220.44 385.535 220.257 386.319 220.257 387.214C220.257 388.109 220.44 388.901 220.807 389.59C221.188 390.265 221.702 390.793 222.347 391.174C223.007 391.541 223.748 391.724 224.569 391.724ZM238.533 393.11C237.331 393.11 236.275 392.861 235.365 392.362C234.456 391.849 233.745 391.152 233.231 390.272C232.718 389.377 232.461 388.358 232.461 387.214C232.461 386.07 232.703 385.058 233.187 384.178C233.686 383.298 234.361 382.609 235.211 382.11C236.077 381.597 237.045 381.34 238.115 381.34C239.201 381.34 240.161 381.589 240.997 382.088C241.848 382.572 242.515 383.261 242.999 384.156C243.483 385.036 243.725 386.055 243.725 387.214C243.725 387.287 243.718 387.368 243.703 387.456C243.703 387.529 243.703 387.61 243.703 387.698H233.649V386.532H242.867L242.251 386.994C242.251 386.158 242.068 385.417 241.701 384.772C241.349 384.112 240.865 383.599 240.249 383.232C239.633 382.865 238.922 382.682 238.115 382.682C237.323 382.682 236.612 382.865 235.981 383.232C235.351 383.599 234.859 384.112 234.507 384.772C234.155 385.432 233.979 386.187 233.979 387.038V387.28C233.979 388.16 234.17 388.937 234.551 389.612C234.947 390.272 235.49 390.793 236.179 391.174C236.883 391.541 237.683 391.724 238.577 391.724C239.281 391.724 239.934 391.599 240.535 391.35C241.151 391.101 241.679 390.719 242.119 390.206L242.999 391.218C242.486 391.834 241.841 392.303 241.063 392.626C240.301 392.949 239.457 393.11 238.533 393.11ZM246.905 393V381.45H248.401V384.596L248.247 384.046C248.569 383.166 249.112 382.499 249.875 382.044C250.637 381.575 251.583 381.34 252.713 381.34V382.858C252.654 382.858 252.595 382.858 252.537 382.858C252.478 382.843 252.419 382.836 252.361 382.836C251.143 382.836 250.19 383.21 249.501 383.958C248.811 384.691 248.467 385.74 248.467 387.104V393H246.905ZM261.822 393V377.6H263.164L270.204 389.612H269.5L276.474 377.6H277.816V393H276.254V380.042H276.628L270.204 391.042H269.434L262.966 380.042H263.384V393H261.822ZM287.212 393.11C286.098 393.11 285.093 392.861 284.198 392.362C283.318 391.849 282.622 391.152 282.108 390.272C281.595 389.377 281.338 388.358 281.338 387.214C281.338 386.055 281.595 385.036 282.108 384.156C282.622 383.276 283.318 382.587 284.198 382.088C285.078 381.589 286.083 381.34 287.212 381.34C288.356 381.34 289.368 381.589 290.248 382.088C291.143 382.587 291.84 383.276 292.338 384.156C292.852 385.036 293.108 386.055 293.108 387.214C293.108 388.358 292.852 389.377 292.338 390.272C291.84 391.152 291.143 391.849 290.248 392.362C289.354 392.861 288.342 393.11 287.212 393.11ZM287.212 391.724C288.048 391.724 288.789 391.541 289.434 391.174C290.08 390.793 290.586 390.265 290.952 389.59C291.334 388.901 291.524 388.109 291.524 387.214C291.524 386.305 291.334 385.513 290.952 384.838C290.586 384.163 290.08 383.643 289.434 383.276C288.789 382.895 288.056 382.704 287.234 382.704C286.413 382.704 285.68 382.895 285.034 383.276C284.389 383.643 283.876 384.163 283.494 384.838C283.113 385.513 282.922 386.305 282.922 387.214C282.922 388.109 283.113 388.901 283.494 389.59C283.876 390.265 284.389 390.793 285.034 391.174C285.68 391.541 286.406 391.724 287.212 391.724ZM302.193 381.34C303.132 381.34 303.953 381.523 304.657 381.89C305.376 382.242 305.933 382.785 306.329 383.518C306.74 384.251 306.945 385.175 306.945 386.29V393H305.383V386.444C305.383 385.227 305.075 384.31 304.459 383.694C303.858 383.063 303.007 382.748 301.907 382.748C301.086 382.748 300.367 382.917 299.751 383.254C299.15 383.577 298.68 384.053 298.343 384.684C298.02 385.3 297.859 386.048 297.859 386.928V393H296.297V381.45H297.793V384.618L297.551 384.024C297.918 383.188 298.504 382.535 299.311 382.066C300.118 381.582 301.078 381.34 302.193 381.34ZM314.816 393.11C313.731 393.11 312.895 392.817 312.308 392.23C311.722 391.643 311.428 390.815 311.428 389.744V378.898H312.99V389.656C312.99 390.331 313.159 390.851 313.496 391.218C313.848 391.585 314.347 391.768 314.992 391.768C315.682 391.768 316.254 391.57 316.708 391.174L317.258 392.296C316.95 392.575 316.576 392.78 316.136 392.912C315.711 393.044 315.271 393.11 314.816 393.11ZM309.36 382.748V381.45H316.51V382.748H309.36ZM325.998 381.34C326.936 381.34 327.758 381.523 328.462 381.89C329.18 382.242 329.738 382.785 330.134 383.518C330.544 384.251 330.75 385.175 330.75 386.29V393H329.188V386.444C329.188 385.227 328.88 384.31 328.264 383.694C327.662 383.063 326.812 382.748 325.712 382.748C324.89 382.748 324.172 382.917 323.556 383.254C322.954 383.577 322.485 384.053 322.148 384.684C321.825 385.3 321.664 386.048 321.664 386.928V393H320.102V376.676H321.664V384.618L321.356 384.024C321.722 383.188 322.309 382.535 323.116 382.066C323.922 381.582 324.883 381.34 325.998 381.34Z" fill="#F8F9FD"/>
<path d="M198.008 484V468.6H199.35L206.39 480.612H205.686L212.66 468.6H214.002V484H212.44V471.042H212.814L206.39 482.042H205.62L199.152 471.042H199.57V484H198.008ZM225.928 484V481.448L225.862 481.03V476.762C225.862 475.779 225.583 475.024 225.026 474.496C224.483 473.968 223.669 473.704 222.584 473.704C221.836 473.704 221.124 473.829 220.45 474.078C219.775 474.327 219.203 474.657 218.734 475.068L218.03 473.902C218.616 473.403 219.32 473.022 220.142 472.758C220.963 472.479 221.828 472.34 222.738 472.34C224.234 472.34 225.385 472.714 226.192 473.462C227.013 474.195 227.424 475.317 227.424 476.828V484H225.928ZM221.946 484.11C221.08 484.11 220.325 483.971 219.68 483.692C219.049 483.399 218.565 483.003 218.228 482.504C217.89 481.991 217.722 481.404 217.722 480.744C217.722 480.143 217.861 479.6 218.14 479.116C218.433 478.617 218.902 478.221 219.548 477.928C220.208 477.62 221.088 477.466 222.188 477.466H226.17V478.632H222.232C221.117 478.632 220.34 478.83 219.9 479.226C219.474 479.622 219.262 480.113 219.262 480.7C219.262 481.36 219.518 481.888 220.032 482.284C220.545 482.68 221.264 482.878 222.188 482.878C223.068 482.878 223.823 482.68 224.454 482.284C225.099 481.873 225.568 481.287 225.862 480.524L226.214 481.602C225.92 482.365 225.407 482.973 224.674 483.428C223.955 483.883 223.046 484.11 221.946 484.11ZM231.666 484V472.45H233.162V475.596L233.008 475.046C233.331 474.166 233.874 473.499 234.636 473.044C235.399 472.575 236.345 472.34 237.474 472.34V473.858C237.416 473.858 237.357 473.858 237.298 473.858C237.24 473.843 237.181 473.836 237.122 473.836C235.905 473.836 234.952 474.21 234.262 474.958C233.573 475.691 233.228 476.74 233.228 478.104V484H231.666ZM241.556 481.008L241.6 479.006L248.794 472.45H250.708L245.626 477.312L244.746 478.06L241.556 481.008ZM240.324 484V467.676H241.886V484H240.324ZM249.278 484L244.46 477.994L245.472 476.784L251.192 484H249.278ZM257.992 484.11C256.79 484.11 255.734 483.861 254.824 483.362C253.915 482.849 253.204 482.152 252.69 481.272C252.177 480.377 251.92 479.358 251.92 478.214C251.92 477.07 252.162 476.058 252.646 475.178C253.145 474.298 253.82 473.609 254.67 473.11C255.536 472.597 256.504 472.34 257.574 472.34C258.66 472.34 259.62 472.589 260.456 473.088C261.307 473.572 261.974 474.261 262.458 475.156C262.942 476.036 263.184 477.055 263.184 478.214C263.184 478.287 263.177 478.368 263.162 478.456C263.162 478.529 263.162 478.61 263.162 478.698H253.108V477.532H262.326L261.71 477.994C261.71 477.158 261.527 476.417 261.16 475.772C260.808 475.112 260.324 474.599 259.708 474.232C259.092 473.865 258.381 473.682 257.574 473.682C256.782 473.682 256.071 473.865 255.44 474.232C254.81 474.599 254.318 475.112 253.966 475.772C253.614 476.432 253.438 477.187 253.438 478.038V478.28C253.438 479.16 253.629 479.937 254.01 480.612C254.406 481.272 254.949 481.793 255.638 482.174C256.342 482.541 257.142 482.724 258.036 482.724C258.74 482.724 259.393 482.599 259.994 482.35C260.61 482.101 261.138 481.719 261.578 481.206L262.458 482.218C261.945 482.834 261.3 483.303 260.522 483.626C259.76 483.949 258.916 484.11 257.992 484.11ZM270.016 484.11C268.93 484.11 268.094 483.817 267.508 483.23C266.921 482.643 266.628 481.815 266.628 480.744V469.898H268.19V480.656C268.19 481.331 268.358 481.851 268.696 482.218C269.048 482.585 269.546 482.768 270.192 482.768C270.881 482.768 271.453 482.57 271.908 482.174L272.458 483.296C272.15 483.575 271.776 483.78 271.336 483.912C270.91 484.044 270.47 484.11 270.016 484.11ZM264.56 473.748V472.45H271.71V473.748H264.56ZM275.301 484V472.45H276.863V484H275.301ZM276.093 469.898C275.77 469.898 275.499 469.788 275.279 469.568C275.059 469.348 274.949 469.084 274.949 468.776C274.949 468.468 275.059 468.211 275.279 468.006C275.499 467.786 275.77 467.676 276.093 467.676C276.416 467.676 276.687 467.779 276.907 467.984C277.127 468.189 277.237 468.446 277.237 468.754C277.237 469.077 277.127 469.348 276.907 469.568C276.702 469.788 276.43 469.898 276.093 469.898ZM287.105 472.34C288.044 472.34 288.865 472.523 289.569 472.89C290.288 473.242 290.845 473.785 291.241 474.518C291.652 475.251 291.857 476.175 291.857 477.29V484H290.295V477.444C290.295 476.227 289.987 475.31 289.371 474.694C288.77 474.063 287.919 473.748 286.819 473.748C285.998 473.748 285.279 473.917 284.663 474.254C284.062 474.577 283.593 475.053 283.255 475.684C282.933 476.3 282.771 477.048 282.771 477.928V484H281.209V472.45H282.705V475.618L282.463 475.024C282.83 474.188 283.417 473.535 284.223 473.066C285.03 472.582 285.991 472.34 287.105 472.34ZM301.004 488.378C299.948 488.378 298.936 488.224 297.968 487.916C297 487.608 296.216 487.168 295.614 486.596L296.406 485.408C296.949 485.892 297.616 486.273 298.408 486.552C299.215 486.845 300.066 486.992 300.96 486.992C302.427 486.992 303.505 486.647 304.194 485.958C304.884 485.283 305.228 484.227 305.228 482.79V479.908L305.448 477.928L305.294 475.948V472.45H306.79V482.592C306.79 484.587 306.299 486.046 305.316 486.97C304.348 487.909 302.911 488.378 301.004 488.378ZM300.718 483.56C299.618 483.56 298.628 483.325 297.748 482.856C296.868 482.372 296.172 481.705 295.658 480.854C295.16 480.003 294.91 479.028 294.91 477.928C294.91 476.828 295.16 475.86 295.658 475.024C296.172 474.173 296.868 473.513 297.748 473.044C298.628 472.575 299.618 472.34 300.718 472.34C301.745 472.34 302.669 472.553 303.49 472.978C304.312 473.403 304.964 474.034 305.448 474.87C305.932 475.706 306.174 476.725 306.174 477.928C306.174 479.131 305.932 480.15 305.448 480.986C304.964 481.822 304.312 482.46 303.49 482.9C302.669 483.34 301.745 483.56 300.718 483.56ZM300.872 482.174C301.723 482.174 302.478 481.998 303.138 481.646C303.798 481.279 304.319 480.781 304.7 480.15C305.082 479.505 305.272 478.764 305.272 477.928C305.272 477.092 305.082 476.359 304.7 475.728C304.319 475.097 303.798 474.606 303.138 474.254C302.478 473.887 301.723 473.704 300.872 473.704C300.036 473.704 299.281 473.887 298.606 474.254C297.946 474.606 297.426 475.097 297.044 475.728C296.678 476.359 296.494 477.092 296.494 477.928C296.494 478.764 296.678 479.505 297.044 480.15C297.426 480.781 297.946 481.279 298.606 481.646C299.281 481.998 300.036 482.174 300.872 482.174Z" fill="#F8F9FD"/>
</svg>