<svg width="704" height="96" viewBox="0 0 704 96" fill="none" xmlns="http://www.w3.org/2000/svg">
<path d="M236.191 31.8037C240.999 34.5129 244.752 38.2822 247.567 43.1117C250.264 47.9411 251.671 53.5951 251.671 59.9558C251.671 66.3166 250.264 71.9706 247.567 76.9178C244.87 81.865 240.999 85.6344 236.191 88.3436C231.383 91.0528 225.871 92.3485 219.773 92.3485C215.434 92.3485 211.564 91.6417 207.928 90.1104C204.41 88.5791 201.361 86.3411 198.898 83.3963V91.5239H184.942V4.00491H199.602V36.162C202.064 33.4528 205.113 31.3325 208.514 29.919C211.915 28.5055 215.668 27.7988 219.773 27.7988C225.871 27.7988 231.383 29.0945 236.191 31.8037ZM231.5 74.2086C235.018 70.5571 236.778 65.8454 236.778 59.9558C236.778 54.0663 235.018 49.3546 231.5 45.7031C227.982 42.0515 223.526 40.2847 218.131 40.2847C214.613 40.2847 211.446 41.1092 208.632 42.7583C205.817 44.4074 203.589 46.6454 201.947 49.708C200.305 52.6528 199.484 56.1865 199.484 60.0736C199.484 63.9607 200.305 67.4945 201.947 70.4393C203.589 73.384 205.817 75.7399 208.632 77.389C211.446 79.038 214.613 79.8626 218.131 79.8626C223.526 79.627 227.982 77.8601 231.5 74.2086Z" fill="#D9D9D9"/>
<path d="M266.214 15.5485C264.454 13.8994 263.516 11.7791 263.516 9.18774C263.516 6.71412 264.454 4.59387 266.214 2.827C267.973 1.17792 270.201 0.235588 272.898 0.235588C275.596 0.235588 277.824 1.06013 279.583 2.59142C281.342 4.2405 282.28 6.24295 282.28 8.71657C282.28 11.308 281.342 13.546 279.583 15.3129C277.824 17.0798 275.713 18.1399 272.898 18.1399C270.318 18.1399 268.09 17.3153 266.214 15.5485ZM265.51 28.5055H280.169V91.4061H265.51V28.5055Z" fill="#D9D9D9"/>
<path d="M332.474 87.9902C330.715 89.4037 328.604 90.4638 326.141 91.1705C323.678 91.8773 321.098 92.2307 318.284 92.2307C311.364 92.2307 306.087 90.4638 302.334 86.8123C298.581 83.1607 296.705 77.9779 296.705 71.0282V14.6061H311.364V28.9767H328.135V40.7558H311.364V70.6748C311.364 73.7374 312.068 76.0932 313.593 77.7423C315.117 79.3914 317.228 80.0982 320.043 80.0982C323.326 80.0982 326.024 79.2736 328.252 77.5067L332.474 87.9902Z" fill="#D9D9D9"/>
<path d="M400.259 34.7485C405.067 39.3423 407.412 46.292 407.412 55.362V91.4061H392.753V57.2466C392.753 51.7104 391.463 47.5877 388.883 44.7607C386.303 41.9337 382.667 40.5202 377.859 40.5202C372.464 40.5202 368.243 42.1693 365.076 45.4675C361.91 48.7656 360.385 53.4773 360.385 59.6024V91.4061H345.726V28.5055H359.681V36.6331C362.144 33.6883 365.193 31.5681 368.829 30.0368C372.464 28.5055 376.686 27.7988 381.26 27.7988C389.117 27.7988 395.45 30.1546 400.259 34.7485Z" fill="#D9D9D9"/>
<path d="M435.324 88.108C430.281 85.3988 426.293 81.5117 423.362 76.5644C420.547 71.6172 419.022 66.081 419.022 59.838C419.022 53.5951 420.43 48.0589 423.362 43.2295C426.176 38.4 430.164 34.5129 435.324 31.8037C440.366 29.0945 446.113 27.681 452.446 27.681C458.896 27.681 464.642 29.0945 469.685 31.8037C474.728 34.5129 478.715 38.4 481.647 43.2295C484.462 48.0589 485.986 53.5951 485.986 59.838C485.986 66.081 484.579 71.6172 481.647 76.5644C478.833 81.5117 474.845 85.281 469.685 88.108C464.642 90.8172 458.896 92.2307 452.446 92.2307C446.113 92.2307 440.366 90.8172 435.324 88.108ZM465.815 74.2086C469.333 70.5571 471.092 65.8454 471.092 59.9558C471.092 54.0663 469.333 49.3546 465.815 45.7031C462.297 42.0515 457.84 40.2847 452.446 40.2847C447.051 40.2847 442.595 42.0515 439.076 45.7031C435.558 49.3546 433.799 54.0663 433.799 59.9558C433.799 65.8454 435.558 70.5571 439.076 74.2086C442.595 77.8601 447.051 79.627 452.446 79.627C457.84 79.627 462.297 77.8601 465.815 74.2086Z" fill="#D9D9D9"/>
<path d="M595.404 34.6307C599.977 39.2245 602.323 46.1742 602.323 55.362V91.4061H587.663V57.2466C587.663 51.7104 586.491 47.5877 584.028 44.7607C581.565 41.9337 578.164 40.5202 573.591 40.5202C568.665 40.5202 564.678 42.1693 561.746 45.4675C558.814 48.7656 557.289 53.3595 557.289 59.4847V91.4061H542.63V57.2466C542.63 51.7104 541.457 47.5877 538.994 44.7607C536.532 41.9337 533.131 40.5202 528.557 40.5202C523.514 40.5202 519.527 42.1693 516.595 45.3497C513.663 48.5301 512.139 53.2417 512.139 59.3669V91.2883H497.479V28.5055H511.435V36.5153C513.78 33.6883 516.712 31.5681 520.231 30.0368C523.749 28.5055 527.619 27.7988 531.958 27.7988C536.649 27.7988 540.871 28.7411 544.506 30.508C548.142 32.2748 551.074 34.8663 553.185 38.4C555.765 35.1018 559.048 32.5104 563.153 30.6258C567.258 28.7411 571.714 27.7988 576.64 27.7988C584.497 27.7988 590.83 30.0368 595.404 34.6307Z" fill="#D9D9D9"/>
<path d="M619.445 15.5485C617.686 13.8994 616.748 11.7791 616.748 9.18774C616.748 6.71412 617.686 4.59387 619.445 2.827C621.204 1.17792 623.432 0.235588 626.13 0.235588C628.827 0.235588 631.055 1.06013 632.814 2.59142C634.573 4.2405 635.512 6.24295 635.512 8.71657C635.512 11.308 634.573 13.546 632.814 15.3129C631.055 17.0798 628.827 18.0221 626.012 18.0221C623.432 18.1399 621.204 17.3153 619.445 15.5485ZM618.741 28.5055H633.401V91.4061H618.741V28.5055Z" fill="#D9D9D9"/>
<path d="M696.612 34.3951C701.537 38.8712 704 45.5853 704 54.5374V91.4061H690.162V83.7497C688.402 86.4589 685.822 88.5791 682.421 90.1104C679.138 91.5239 675.033 92.3485 670.342 92.3485C665.651 92.3485 661.546 91.5239 658.028 89.8748C654.51 88.2258 651.813 85.9877 649.819 83.1607C647.943 80.3337 646.887 77.0356 646.887 73.384C646.887 67.7301 648.998 63.1362 653.22 59.7202C657.442 56.3043 664.009 54.5374 673.039 54.5374H689.223V53.5951C689.223 49.2368 687.933 45.8209 685.236 43.465C682.656 41.1092 678.669 39.9313 673.509 39.9313C669.99 39.9313 666.472 40.5202 663.071 41.5804C659.67 42.6405 656.738 44.1718 654.393 46.1742L648.646 35.4552C651.93 32.9816 655.917 30.9791 660.491 29.6834C665.065 28.3877 669.99 27.681 675.15 27.681C684.65 27.7988 691.686 30.0368 696.612 34.3951ZM683.242 78.9202C686.057 77.2712 688.168 74.7975 689.341 71.6172V64.3141H674.212C665.768 64.3141 661.546 67.1411 661.546 72.6773C661.546 75.3865 662.602 77.5067 664.713 79.038C666.824 80.5693 669.756 81.3939 673.509 81.3939C677.027 81.5116 680.31 80.6871 683.242 78.9202Z" fill="#D9D9D9"/>
<path d="M155.741 48.0589C155.741 74.562 134.397 96 108.01 96H35.8861C16.0666 96 0 79.8626 0 59.9558C0 40.0491 16.0666 23.9117 35.8861 23.9117C36.1206 23.9117 36.4724 23.9117 36.707 23.9117C36.9415 23.9117 37.1761 23.9117 37.4106 23.9117H37.5279C37.7625 23.9117 37.8797 23.9117 38.1143 23.9117C38.3488 23.9117 38.4661 23.9117 38.7006 23.9117C38.9352 23.9117 39.0525 23.9117 39.287 23.9117C39.8734 23.9117 40.3425 24.0294 40.9289 24.1472C41.1634 24.1472 41.2807 24.1472 41.5152 24.265C41.6325 24.265 41.8671 24.265 41.9843 24.3828C42.3362 24.3828 42.5707 24.5006 42.9225 24.5006C43.1571 24.5006 43.2744 24.6184 43.5089 24.6184C43.6262 24.6184 43.6262 24.6184 43.7435 24.6184C43.8607 24.6184 44.0953 24.7362 44.2126 24.7362C44.7989 24.854 45.3853 24.9718 45.9717 25.2074C46.3235 25.3252 46.5581 25.4429 46.9099 25.4429C47.0272 25.4429 47.2617 25.5607 47.379 25.5607C52.5391 27.2098 57.5819 29.8012 62.5074 32.9816C81.6232 45.3497 99.5662 66.5521 117.157 73.384C120.441 74.7975 124.194 75.6221 128.064 75.6221C143.427 75.9755 155.741 63.4896 155.741 48.0589Z" fill="#09B5DA"/>
<path d="M155.741 48.0589C155.741 63.3718 143.31 75.8577 128.064 75.8577C124.428 75.8577 120.793 75.0331 117.157 73.6196C99.5662 66.7877 81.7405 45.5853 62.5074 33.2172C68.723 14.0172 86.666 0 107.893 0C134.397 0.117791 155.741 21.5558 155.741 48.0589Z" fill="#0096C5"/>
</svg>