<svg width="278" height="261" viewBox="0 0 278 261" fill="none" xmlns="http://www.w3.org/2000/svg">
<path d="M41 136C41 131.582 44.5817 128 49 128H65C69.4183 128 73 131.582 73 136V217C73 221.418 69.4183 225 65 225H49C44.5817 225 41 221.418 41 217V136Z" fill="#64F390"/>
<path d="M100 90C100 85.5817 103.582 82 108 82H124C128.418 82 132 85.5817 132 90V217C132 221.418 128.418 225 124 225H108C103.582 225 100 221.418 100 217V90Z" fill="#0EB5D9"/>
<path d="M159 116C159 111.582 162.582 108 167 108H183C187.418 108 191 111.582 191 116V217C191 221.418 187.418 225 183 225H167C162.582 225 159 221.418 159 217V116Z" fill="#64F390"/>
<path d="M218 48C218 43.5817 221.582 40 226 40H242C246.418 40 250 43.5817 250 48V216C250 220.418 246.418 224 242 224H226C221.582 224 218 220.418 218 216V48Z" fill="#0EB5D9"/>
<path d="M0 9.5C0 4.2533 4.25329 0 9.5 0C14.7467 0 19 4.25329 19 9.5V251.5C19 256.747 14.7467 261 9.5 261C4.25329 261 0 256.747 0 251.5V9.5Z" fill="#16365E"/>
<path d="M268.5 242C273.747 242 278 246.253 278 251.5C278 256.747 273.747 261 268.5 261H9.5C4.25329 261 0 256.747 0 251.5C2.29341e-07 246.253 4.2533 242 9.5 242L268.5 242Z" fill="#16365E"/>
<path d="M186.803 58.5001L211.896 24.0826C213.951 21.2649 213.348 17.3177 210.547 15.2412C207.751 13.1687 203.807 13.7332 201.705 16.507L176.696 49.5076L186.803 58.5001ZM53.211 73.0373C54.992 76.3281 59.1065 77.5476 62.393 75.7586L114.637 47.3195L108.199 35.4229L55.9257 63.8778C52.6505 65.6606 51.4362 69.7578 53.211 73.0373ZM119.738 46.7715L166 64.5001L169.761 51.5078L123.5 33.7791L119.738 46.7715ZM114.637 47.3195C116.199 46.4746 118.031 46.2778 119.738 46.7715L123.5 33.7791C118.381 32.2981 112.886 32.8885 108.199 35.4229L114.637 47.3195ZM176.696 49.5076C174.964 51.4543 172.265 52.2322 169.761 51.5078L166 64.5001C173.511 66.6739 181.604 64.3399 186.803 58.5001L176.696 49.5076Z" fill="#16365E"/>
<path d="M196.1 9.65377L214.525 1.71312C216.448 0.884198 218.608 2.23124 218.709 4.32316L219.714 25.0929C219.833 27.5462 217.114 29.0948 215.064 27.7414L195.635 14.9123C193.644 13.5978 193.909 10.598 196.1 9.65377Z" fill="#16365E"/>
</svg>