<svg width="386" height="388" viewBox="0 0 386 388" fill="none" xmlns="http://www.w3.org/2000/svg">
<path d="M0 29.8401C0 24.8695 4.02944 20.8401 9 20.8401H169.878C174.849 20.8401 178.878 24.8695 178.878 29.8401V358.16C178.878 363.131 174.849 367.16 169.878 367.16H9.00001C4.02945 367.16 0 363.131 0 358.16V29.8401Z" fill="#9EBBCE"/>
<path d="M25.7706 72.1301C25.7706 67.7118 29.3523 64.1301 33.7706 64.1301H143.592C148.01 64.1301 151.592 67.7118 151.592 72.1301V100.817C151.592 105.235 148.01 108.817 143.592 108.817H33.7706C29.3523 108.817 25.7706 105.235 25.7706 100.817V72.1301Z" fill="#35718A"/>
<path d="M43.9615 87.1715C43.9615 83.7009 46.775 80.8875 50.2456 80.8875H57.3844C60.855 80.8875 63.6684 83.7009 63.6684 87.1715C63.6684 90.6421 60.855 93.4555 57.3844 93.4555H50.2456C46.775 93.4555 43.9615 90.6421 43.9615 87.1715Z" fill="#86FDAA"/>
<path d="M81.8594 87.1715C81.8594 83.7009 84.6729 80.8875 88.1435 80.8875H128.632C132.103 80.8875 134.916 83.7009 134.916 87.1715C134.916 90.6421 132.103 93.4555 128.632 93.4555H88.1435C84.6729 93.4555 81.8594 90.6421 81.8594 87.1715Z" fill="#296172"/>
<path d="M25.7706 143.349C25.7706 138.931 29.3523 135.349 33.7706 135.349H143.592C148.01 135.349 151.592 138.931 151.592 143.349V172.036C151.592 176.454 148.01 180.036 143.592 180.036H33.7706C29.3523 180.036 25.7706 176.454 25.7706 172.036V143.349Z" fill="#35718A"/>
<path d="M43.9615 158.391C43.9615 154.92 46.775 152.107 50.2456 152.107H57.3844C60.855 152.107 63.6684 154.92 63.6684 158.391C63.6684 161.861 60.855 164.675 57.3844 164.675H50.2456C46.775 164.675 43.9615 161.861 43.9615 158.391Z" fill="#86FDAA"/>
<path d="M81.8594 158.391C81.8594 154.92 84.6729 152.107 88.1435 152.107H128.632C132.103 152.107 134.916 154.92 134.916 158.391C134.916 161.861 132.103 164.675 128.632 164.675H88.1435C84.6729 164.675 81.8594 161.861 81.8594 158.391Z" fill="#296172"/>
<path d="M25.7706 214.568C25.7706 210.15 29.3523 206.568 33.7706 206.568H143.592C148.01 206.568 151.592 210.15 151.592 214.568V243.255C151.592 247.673 148.01 251.255 143.592 251.255H33.7706C29.3523 251.255 25.7706 247.673 25.7706 243.255V214.568Z" fill="#35718A"/>
<path d="M43.9615 229.61C43.9615 226.139 46.775 223.326 50.2456 223.326H57.3844C60.855 223.326 63.6684 226.139 63.6684 229.61C63.6684 233.08 60.855 235.894 57.3844 235.894H50.2456C46.775 235.894 43.9615 233.08 43.9615 229.61Z" fill="#86FDAA"/>
<path d="M81.8594 229.61C81.8594 226.139 84.6729 223.326 88.1435 223.326H128.632C132.103 223.326 134.916 226.139 134.916 229.61C134.916 233.08 132.103 235.894 128.632 235.894H88.1435C84.6729 235.894 81.8594 233.08 81.8594 229.61Z" fill="#296172"/>
<path d="M25.7706 285.787C25.7706 281.369 29.3523 277.787 33.7706 277.787H143.592C148.01 277.787 151.592 281.369 151.592 285.787V314.474C151.592 318.892 148.01 322.474 143.592 322.474H33.7706C29.3523 322.474 25.7706 318.892 25.7706 314.474V285.787Z" fill="#35718A"/>
<path d="M43.9615 300.829C43.9615 297.358 46.775 294.545 50.2456 294.545H57.3844C60.855 294.545 63.6684 297.358 63.6684 300.829C63.6684 304.299 60.855 307.113 57.3844 307.113H50.2456C46.775 307.113 43.9615 304.299 43.9615 300.829Z" fill="#86FDAA"/>
<path d="M81.8594 300.829C81.8594 297.358 84.6729 294.545 88.1435 294.545H128.632C132.103 294.545 134.916 297.358 134.916 300.829C134.916 304.299 132.103 307.113 128.632 307.113H88.1435C84.6729 307.113 81.8594 304.299 81.8594 300.829Z" fill="#296172"/>
<path d="M207.122 29.8401C207.122 24.8695 211.151 20.8401 216.122 20.8401H377C381.971 20.8401 386 24.8695 386 29.8401V358.16C386 363.131 381.971 367.16 377 367.16H216.122C211.151 367.16 207.122 363.131 207.122 358.16V29.8401Z" fill="#9EBBCE"/>
<path d="M232.893 72.1301C232.893 67.7118 236.474 64.1301 240.893 64.1301H350.714C355.132 64.1301 358.714 67.7118 358.714 72.1301V100.817C358.714 105.235 355.132 108.817 350.714 108.817H240.893C236.474 108.817 232.893 105.235 232.893 100.817V72.1301Z" fill="#35718A"/>
<path d="M251.083 87.1715C251.083 83.7009 253.897 80.8875 257.368 80.8875H264.506C267.977 80.8875 270.79 83.7009 270.79 87.1715C270.79 90.6421 267.977 93.4555 264.506 93.4555H257.368C253.897 93.4555 251.083 90.6421 251.083 87.1715Z" fill="#86FDAA"/>
<path d="M288.981 87.1715C288.981 83.7009 291.795 80.8875 295.265 80.8875H335.754C339.225 80.8875 342.038 83.7009 342.038 87.1715C342.038 90.6421 339.225 93.4555 335.754 93.4555H295.265C291.795 93.4555 288.981 90.6421 288.981 87.1715Z" fill="#296172"/>
<path d="M232.893 143.349C232.893 138.931 236.474 135.349 240.893 135.349H350.714C355.132 135.349 358.714 138.931 358.714 143.349V172.036C358.714 176.454 355.132 180.036 350.714 180.036H240.893C236.474 180.036 232.893 176.454 232.893 172.036V143.349Z" fill="#35718A"/>
<path d="M251.083 158.391C251.083 154.92 253.897 152.107 257.368 152.107H264.506C267.977 152.107 270.79 154.92 270.79 158.391C270.79 161.861 267.977 164.675 264.506 164.675H257.368C253.897 164.675 251.083 161.861 251.083 158.391Z" fill="#86FDAA"/>
<path d="M288.981 158.391C288.981 154.92 291.795 152.107 295.265 152.107H335.754C339.225 152.107 342.038 154.92 342.038 158.391C342.038 161.861 339.225 164.675 335.754 164.675H295.265C291.795 164.675 288.981 161.861 288.981 158.391Z" fill="#296172"/>
<path d="M232.893 214.568C232.893 210.15 236.474 206.568 240.893 206.568H350.714C355.132 206.568 358.714 210.15 358.714 214.568V243.255C358.714 247.673 355.132 251.255 350.714 251.255H240.893C236.474 251.255 232.893 247.673 232.893 243.255V214.568Z" fill="#35718A"/>
<path d="M251.083 229.61C251.083 226.139 253.897 223.326 257.368 223.326H264.506C267.977 223.326 270.79 226.139 270.79 229.61C270.79 233.08 267.977 235.894 264.506 235.894H257.368C253.897 235.894 251.083 233.08 251.083 229.61Z" fill="#86FDAA"/>
<path d="M288.981 229.61C288.981 226.139 291.795 223.326 295.265 223.326H335.754C339.225 223.326 342.038 226.139 342.038 229.61C342.038 233.08 339.225 235.894 335.754 235.894H295.265C291.795 235.894 288.981 233.08 288.981 229.61Z" fill="#296172"/>
<path d="M232.893 285.787C232.893 281.369 236.474 277.787 240.893 277.787H350.714C355.132 277.787 358.714 281.369 358.714 285.787V314.474C358.714 318.892 355.132 322.474 350.714 322.474H240.893C236.474 322.474 232.893 318.892 232.893 314.474V285.787Z" fill="#35718A"/>
<path d="M251.083 300.829C251.083 297.358 253.897 294.545 257.368 294.545H264.506C267.977 294.545 270.79 297.358 270.79 300.829C270.79 304.299 267.977 307.113 264.506 307.113H257.368C253.897 307.113 251.083 304.299 251.083 300.829Z" fill="#86FDAA"/>
<path d="M288.981 300.829C288.981 297.358 291.795 294.545 295.265 294.545H335.754C339.225 294.545 342.038 297.358 342.038 300.829C342.038 304.299 339.225 307.113 335.754 307.113H295.265C291.795 307.113 288.981 304.299 288.981 300.829Z" fill="#296172"/>
<path d="M100.423 9.56006C100.423 4.5895 104.452 0.560059 109.423 0.560059H276.577C281.548 0.560059 285.577 4.5895 285.577 9.56006V378.44C285.577 383.411 281.548 387.44 276.577 387.44H109.423C104.452 387.44 100.423 383.411 100.423 378.44V9.56006Z" fill="#BFDBF0"/>
<path d="M127.098 56.9201C127.098 52.5018 130.679 48.9201 135.098 48.9201H249.333C253.752 48.9201 257.333 52.5018 257.333 56.9201V90.8401C257.333 95.2583 253.752 98.8401 249.333 98.8401H135.098C130.679 98.8401 127.098 95.2583 127.098 90.8401V56.9201Z" fill="#4184A9"/>
<path d="M145.927 74.6601C145.927 70.783 149.07 67.6401 152.947 67.6401H159.305C163.182 67.6401 166.325 70.783 166.325 74.6601C166.325 78.5371 163.182 81.6801 159.305 81.6801H152.947C149.07 81.6801 145.927 78.5371 145.927 74.6601Z" fill="#86FDAA"/>
<path d="M185.154 74.6601C185.154 70.783 188.297 67.6401 192.174 67.6401H233.053C236.93 67.6401 240.073 70.783 240.073 74.6601C240.073 78.5371 236.93 81.6801 233.053 81.6801H192.174C188.297 81.6801 185.154 78.5371 185.154 74.6601Z" fill="#35718A"/>
<path d="M127.098 136.48C127.098 132.062 130.679 128.48 135.098 128.48H249.333C253.752 128.48 257.333 132.062 257.333 136.48V170.4C257.333 174.818 253.752 178.4 249.333 178.4H135.098C130.679 178.4 127.098 174.818 127.098 170.4V136.48Z" fill="#4184A9"/>
<path d="M145.927 154.22C145.927 150.343 149.07 147.2 152.947 147.2H159.305C163.182 147.2 166.325 150.343 166.325 154.22C166.325 158.097 163.182 161.24 159.305 161.24H152.947C149.07 161.24 145.927 158.097 145.927 154.22Z" fill="#86FDAA"/>
<path d="M185.154 154.22C185.154 150.343 188.297 147.2 192.174 147.2H233.053C236.93 147.2 240.073 150.343 240.073 154.22C240.073 158.097 236.93 161.24 233.053 161.24H192.174C188.297 161.24 185.154 158.097 185.154 154.22Z" fill="#35718A"/>
<path d="M127.098 216.04C127.098 211.622 130.679 208.04 135.098 208.04H249.333C253.752 208.04 257.333 211.622 257.333 216.04V249.96C257.333 254.378 253.752 257.96 249.333 257.96H135.098C130.679 257.96 127.098 254.378 127.098 249.96V216.04Z" fill="#4184A9"/>
<path d="M145.927 233.78C145.927 229.903 149.07 226.76 152.947 226.76H159.305C163.182 226.76 166.325 229.903 166.325 233.78C166.325 237.657 163.182 240.8 159.305 240.8H152.947C149.07 240.8 145.927 237.657 145.927 233.78Z" fill="#86FDAA"/>
<path d="M185.154 233.78C185.154 229.903 188.297 226.76 192.174 226.76H233.053C236.93 226.76 240.073 229.903 240.073 233.78C240.073 237.657 236.93 240.8 233.053 240.8H192.174C188.297 240.8 185.154 237.657 185.154 233.78Z" fill="#35718A"/>
<path d="M127.098 295.6C127.098 291.182 130.679 287.6 135.098 287.6H249.333C253.752 287.6 257.333 291.182 257.333 295.6V329.52C257.333 333.938 253.752 337.52 249.333 337.52H135.098C130.679 337.52 127.098 333.938 127.098 329.52V295.6Z" fill="#4184A9"/>
<path d="M145.927 313.34C145.927 309.463 149.07 306.32 152.947 306.32H159.305C163.182 306.32 166.325 309.463 166.325 313.34C166.325 317.217 163.182 320.36 159.305 320.36H152.947C149.07 320.36 145.927 317.217 145.927 313.34Z" fill="#86FDAA"/>
<path d="M185.154 313.34C185.154 309.463 188.297 306.32 192.174 306.32H233.053C236.93 306.32 240.073 309.463 240.073 313.34C240.073 317.217 236.93 320.36 233.053 320.36H192.174C188.297 320.36 185.154 317.217 185.154 313.34Z" fill="#35718A"/>
</svg>