<svg width="484" height="561" viewBox="0 0 484 561" fill="none" xmlns="http://www.w3.org/2000/svg">
<path d="M0 131.659C0 128.693 1.64084 125.97 4.26331 124.585L238.263 0.973911C240.601 -0.261164 243.399 -0.261158 245.737 0.973917L479.737 124.585C482.359 125.97 484 128.693 484 131.659V416.487C484 419.344 482.477 421.984 480.004 423.413L246.004 558.685C243.527 560.117 240.473 560.117 237.996 558.685L3.99617 423.413C1.52312 421.984 0 419.344 0 416.487V131.659Z" fill="#16365E"/>
<path d="M66 251.626C66 248.661 67.6395 245.94 70.2602 244.554L237.76 155.978C240.1 154.74 242.9 154.74 245.24 155.978L412.74 244.554C415.361 245.94 417 248.661 417 251.626V455.824C417 458.68 415.478 461.318 413.007 462.749L245.507 559.681C243.028 561.116 239.972 561.116 237.493 559.681L69.993 462.749C67.5217 461.318 66 458.68 66 455.824V251.626Z" fill="#D9D9D9" fill-opacity="0.25"/>
<path d="M128 362.87C128 359.906 129.639 357.184 132.259 355.798L237.759 299.979C240.099 298.741 242.901 298.741 245.241 299.979L350.741 355.798C353.361 357.184 355 359.906 355 362.87V491.671C355 494.526 353.479 497.164 351.009 498.594L245.509 559.679C243.029 561.115 239.971 561.115 237.491 559.679L131.991 498.594C129.521 497.164 128 494.526 128 491.671V362.87Z" fill="#D9D9D9" fill-opacity="0.5"/>
<path d="M180 455.577C180 452.611 181.641 449.889 184.263 448.503L238.263 419.974C240.601 418.739 243.399 418.739 245.737 419.974L299.737 448.503C302.359 449.889 304 452.611 304 455.577V521.539C304 524.395 302.477 527.035 300.004 528.465L246.004 559.685C243.527 561.117 240.473 561.117 237.996 559.685L183.996 528.465C181.523 527.035 180 524.395 180 521.539V455.577Z" fill="#D9D9D9" fill-opacity="0.75"/>
<path d="M137.471 135V94.04L141.951 98.52H128.51V90.2H147.839V135H137.471ZM174.821 135.768C171.152 135.768 167.866 134.872 164.965 133.08C162.064 131.245 159.781 128.6 158.117 125.144C156.453 121.688 155.621 117.507 155.621 112.6C155.621 107.693 156.453 103.512 158.117 100.056C159.781 96.6 162.064 93.976 164.965 92.184C167.866 90.3493 171.152 89.432 174.821 89.432C178.533 89.432 181.818 90.3493 184.677 92.184C187.578 93.976 189.861 96.6 191.525 100.056C193.189 103.512 194.021 107.693 194.021 112.6C194.021 117.507 193.189 121.688 191.525 125.144C189.861 128.6 187.578 131.245 184.677 133.08C181.818 134.872 178.533 135.768 174.821 135.768ZM174.821 127C176.57 127 178.085 126.509 179.365 125.528C180.688 124.547 181.712 122.989 182.437 120.856C183.205 118.723 183.589 115.971 183.589 112.6C183.589 109.229 183.205 106.477 182.437 104.344C181.712 102.211 180.688 100.653 179.365 99.672C178.085 98.6907 176.57 98.2 174.821 98.2C173.114 98.2 171.6 98.6907 170.277 99.672C168.997 100.653 167.973 102.211 167.205 104.344C166.48 106.477 166.117 109.229 166.117 112.6C166.117 115.971 166.48 118.723 167.205 120.856C167.973 122.989 168.997 124.547 170.277 125.528C171.6 126.509 173.114 127 174.821 127ZM236.384 135.768C232.714 135.768 229.429 134.872 226.527 133.08C223.626 131.245 221.344 128.6 219.68 125.144C218.016 121.688 217.184 117.507 217.184 112.6C217.184 107.693 218.016 103.512 219.68 100.056C221.344 96.6 223.626 93.976 226.527 92.184C229.429 90.3493 232.714 89.432 236.384 89.432C240.096 89.432 243.381 90.3493 246.24 92.184C249.141 93.976 251.424 96.6 253.088 100.056C254.752 103.512 255.584 107.693 255.584 112.6C255.584 117.507 254.752 121.688 253.088 125.144C251.424 128.6 249.141 131.245 246.24 133.08C243.381 134.872 240.096 135.768 236.384 135.768ZM236.384 127C238.133 127 239.648 126.509 240.928 125.528C242.25 124.547 243.274 122.989 244 120.856C244.768 118.723 245.152 115.971 245.152 112.6C245.152 109.229 244.768 106.477 244 104.344C243.274 102.211 242.25 100.653 240.928 99.672C239.648 98.6907 238.133 98.2 236.384 98.2C234.677 98.2 233.162 98.6907 231.84 99.672C230.56 100.653 229.536 102.211 228.768 104.344C228.042 106.477 227.68 109.229 227.68 112.6C227.68 115.971 228.042 118.723 228.768 120.856C229.536 122.989 230.56 124.547 231.84 125.528C233.162 126.509 234.677 127 236.384 127ZM279.821 135.768C276.152 135.768 272.866 134.872 269.965 133.08C267.064 131.245 264.781 128.6 263.117 125.144C261.453 121.688 260.621 117.507 260.621 112.6C260.621 107.693 261.453 103.512 263.117 100.056C264.781 96.6 267.064 93.976 269.965 92.184C272.866 90.3493 276.152 89.432 279.821 89.432C283.533 89.432 286.818 90.3493 289.677 92.184C292.578 93.976 294.861 96.6 296.525 100.056C298.189 103.512 299.021 107.693 299.021 112.6C299.021 117.507 298.189 121.688 296.525 125.144C294.861 128.6 292.578 131.245 289.677 133.08C286.818 134.872 283.533 135.768 279.821 135.768ZM279.821 127C281.57 127 283.085 126.509 284.365 125.528C285.688 124.547 286.712 122.989 287.437 120.856C288.205 118.723 288.589 115.971 288.589 112.6C288.589 109.229 288.205 106.477 287.437 104.344C286.712 102.211 285.688 100.653 284.365 99.672C283.085 98.6907 281.57 98.2 279.821 98.2C278.114 98.2 276.6 98.6907 275.277 99.672C273.997 100.653 272.973 102.211 272.205 104.344C271.48 106.477 271.117 109.229 271.117 112.6C271.117 115.971 271.48 118.723 272.205 120.856C272.973 122.989 273.997 124.547 275.277 125.528C276.6 126.509 278.114 127 279.821 127ZM323.259 135.768C319.589 135.768 316.304 134.872 313.403 133.08C310.501 131.245 308.219 128.6 306.555 125.144C304.891 121.688 304.059 117.507 304.059 112.6C304.059 107.693 304.891 103.512 306.555 100.056C308.219 96.6 310.501 93.976 313.403 92.184C316.304 90.3493 319.589 89.432 323.259 89.432C326.971 89.432 330.256 90.3493 333.115 92.184C336.016 93.976 338.299 96.6 339.963 100.056C341.627 103.512 342.459 107.693 342.459 112.6C342.459 117.507 341.627 121.688 339.963 125.144C338.299 128.6 336.016 131.245 333.115 133.08C330.256 134.872 326.971 135.768 323.259 135.768ZM323.259 127C325.008 127 326.523 126.509 327.803 125.528C329.125 124.547 330.149 122.989 330.875 120.856C331.643 118.723 332.027 115.971 332.027 112.6C332.027 109.229 331.643 106.477 330.875 104.344C330.149 102.211 329.125 100.653 327.803 99.672C326.523 98.6907 325.008 98.2 323.259 98.2C321.552 98.2 320.037 98.6907 318.715 99.672C317.435 100.653 316.411 102.211 315.643 104.344C314.917 106.477 314.555 109.229 314.555 112.6C314.555 115.971 314.917 118.723 315.643 120.856C316.411 122.989 317.435 124.547 318.715 125.528C320.037 126.509 321.552 127 323.259 127ZM360.228 127.384V97.816H368.484V127.384H360.228ZM349.156 116.504V108.696H379.62V116.504H349.156Z" fill="url(#paint0_linear_71_277)"/>
<path d="M187.201 257.47V229.182L190.301 232.276H181V226.53H194.376V257.47H187.201ZM225.592 258C223.053 258 220.779 257.381 218.771 256.144C216.763 254.877 215.184 253.05 214.032 250.663C212.881 248.276 212.305 245.389 212.305 242C212.305 238.611 212.881 235.724 214.032 233.337C215.184 230.95 216.763 229.138 218.771 227.901C220.779 226.634 223.053 226 225.592 226C228.161 226 230.434 226.634 232.413 227.901C234.421 229.138 236 230.95 237.152 233.337C238.303 235.724 238.879 238.611 238.879 242C238.879 245.389 238.303 248.276 237.152 250.663C236 253.05 234.421 254.877 232.413 256.144C230.434 257.381 228.161 258 225.592 258ZM225.592 251.945C226.803 251.945 227.851 251.606 228.737 250.928C229.652 250.25 230.361 249.175 230.863 247.702C231.394 246.228 231.66 244.328 231.66 242C231.66 239.672 231.394 237.772 230.863 236.298C230.361 234.825 229.652 233.75 228.737 233.072C227.851 232.394 226.803 232.055 225.592 232.055C224.411 232.055 223.363 232.394 222.447 233.072C221.562 233.75 220.853 234.825 220.321 236.298C219.819 237.772 219.568 239.672 219.568 242C219.568 244.328 219.819 246.228 220.321 247.702C220.853 249.175 221.562 250.25 222.447 250.928C223.363 251.606 224.411 251.945 225.592 251.945ZM255.652 258C253.113 258 250.839 257.381 248.832 256.144C246.824 254.877 245.244 253.05 244.092 250.663C242.941 248.276 242.365 245.389 242.365 242C242.365 238.611 242.941 235.724 244.092 233.337C245.244 230.95 246.824 229.138 248.832 227.901C250.839 226.634 253.113 226 255.652 226C258.221 226 260.495 226.634 262.473 227.901C264.481 229.138 266.061 230.95 267.212 233.337C268.364 235.724 268.94 238.611 268.94 242C268.94 245.389 268.364 248.276 267.212 250.663C266.061 253.05 264.481 254.877 262.473 256.144C260.495 257.381 258.221 258 255.652 258ZM255.652 251.945C256.863 251.945 257.911 251.606 258.797 250.928C259.712 250.25 260.421 249.175 260.923 247.702C261.454 246.228 261.72 244.328 261.72 242C261.72 239.672 261.454 237.772 260.923 236.298C260.421 234.825 259.712 233.75 258.797 233.072C257.911 232.394 256.863 232.055 255.652 232.055C254.471 232.055 253.423 232.394 252.508 233.072C251.622 233.75 250.913 234.825 250.382 236.298C249.88 237.772 249.629 239.672 249.629 242C249.629 244.328 249.88 246.228 250.382 247.702C250.913 249.175 251.622 250.25 252.508 250.928C253.423 251.606 254.471 251.945 255.652 251.945ZM285.713 258C283.173 258 280.9 257.381 278.892 256.144C276.884 254.877 275.304 253.05 274.153 250.663C273.001 248.276 272.426 245.389 272.426 242C272.426 238.611 273.001 235.724 274.153 233.337C275.304 230.95 276.884 229.138 278.892 227.901C280.9 226.634 283.173 226 285.713 226C288.282 226 290.555 226.634 292.534 227.901C294.541 229.138 296.121 230.95 297.273 233.337C298.424 235.724 299 238.611 299 242C299 245.389 298.424 248.276 297.273 250.663C296.121 253.05 294.541 254.877 292.534 256.144C290.555 257.381 288.282 258 285.713 258ZM285.713 251.945C286.923 251.945 287.972 251.606 288.857 250.928C289.773 250.25 290.481 249.175 290.983 247.702C291.515 246.228 291.781 244.328 291.781 242C291.781 239.672 291.515 237.772 290.983 236.298C290.481 234.825 289.773 233.75 288.857 233.072C287.972 232.394 286.923 232.055 285.713 232.055C284.532 232.055 283.484 232.394 282.568 233.072C281.682 233.75 280.974 234.825 280.442 236.298C279.94 237.772 279.689 239.672 279.689 242C279.689 244.328 279.94 246.228 280.442 247.702C280.974 249.175 281.682 250.25 282.568 250.928C283.484 251.606 284.532 251.945 285.713 251.945Z" fill="url(#paint1_linear_71_277)"/>
<path d="M212.51 376.536V351.785L215.265 354.492H207V349.464H218.886V376.536H212.51ZM235.479 377C233.223 377 231.202 376.459 229.418 375.376C227.634 374.267 226.23 372.669 225.207 370.58C224.184 368.492 223.672 365.965 223.672 363C223.672 360.035 224.184 357.508 225.207 355.42C226.23 353.331 227.634 351.746 229.418 350.663C231.202 349.554 233.223 349 235.479 349C237.762 349 239.782 349.554 241.54 350.663C243.325 351.746 244.728 353.331 245.752 355.42C246.775 357.508 247.287 360.035 247.287 363C247.287 365.965 246.775 368.492 245.752 370.58C244.728 372.669 243.325 374.267 241.54 375.376C239.782 376.459 237.762 377 235.479 377ZM235.479 371.702C236.555 371.702 237.486 371.405 238.274 370.812C239.087 370.219 239.717 369.278 240.163 367.989C240.635 366.7 240.871 365.037 240.871 363C240.871 360.963 240.635 359.3 240.163 358.011C239.717 356.722 239.087 355.781 238.274 355.188C237.486 354.595 236.555 354.298 235.479 354.298C234.43 354.298 233.498 354.595 232.685 355.188C231.898 355.781 231.268 356.722 230.796 358.011C230.35 359.3 230.127 360.963 230.127 363C230.127 365.037 230.35 366.7 230.796 367.989C231.268 369.278 231.898 370.219 232.685 370.812C233.498 371.405 234.43 371.702 235.479 371.702ZM262.193 377C259.936 377 257.916 376.459 256.131 375.376C254.347 374.267 252.943 372.669 251.92 370.58C250.897 368.492 250.385 365.965 250.385 363C250.385 360.035 250.897 357.508 251.92 355.42C252.943 353.331 254.347 351.746 256.131 350.663C257.916 349.554 259.936 349 262.193 349C264.475 349 266.496 349.554 268.254 350.663C270.038 351.746 271.442 353.331 272.465 355.42C273.488 357.508 274 360.035 274 363C274 365.965 273.488 368.492 272.465 370.58C271.442 372.669 270.038 374.267 268.254 375.376C266.496 376.459 264.475 377 262.193 377ZM262.193 371.702C263.268 371.702 264.2 371.405 264.987 370.812C265.8 370.219 266.43 369.278 266.876 367.989C267.348 366.7 267.585 365.037 267.585 363C267.585 360.963 267.348 359.3 266.876 358.011C266.43 356.722 265.8 355.781 264.987 355.188C264.2 354.595 263.268 354.298 262.193 354.298C261.143 354.298 260.212 354.595 259.398 355.188C258.611 355.781 257.981 356.722 257.509 358.011C257.063 359.3 256.84 360.963 256.84 363C256.84 365.037 257.063 366.7 257.509 367.989C257.981 369.278 258.611 370.219 259.398 370.812C260.212 371.405 261.143 371.702 262.193 371.702Z" fill="url(#paint2_linear_71_277)"/>
<path d="M228.514 477.619V457.287L230.77 459.511H224V455.381H233.737V477.619H228.514ZM247.328 478C245.48 478 243.825 477.555 242.363 476.666C240.902 475.755 239.752 474.442 238.914 472.727C238.076 471.011 237.656 468.936 237.656 466.5C237.656 464.064 238.076 461.989 238.914 460.273C239.752 458.558 240.902 457.256 242.363 456.366C243.825 455.455 245.48 455 247.328 455C249.198 455 250.853 455.455 252.293 456.366C253.755 457.256 254.904 458.558 255.743 460.273C256.581 461.989 257 464.064 257 466.5C257 468.936 256.581 471.011 255.743 472.727C254.904 474.442 253.755 475.755 252.293 476.666C250.853 477.555 249.198 478 247.328 478ZM247.328 473.648C248.209 473.648 248.972 473.404 249.617 472.917C250.283 472.43 250.799 471.657 251.165 470.598C251.552 469.539 251.745 468.173 251.745 466.5C251.745 464.827 251.552 463.461 251.165 462.402C250.799 461.343 250.283 460.57 249.617 460.083C248.972 459.596 248.209 459.352 247.328 459.352C246.468 459.352 245.705 459.596 245.039 460.083C244.394 460.57 243.879 461.343 243.492 462.402C243.126 463.461 242.944 464.827 242.944 466.5C242.944 468.173 243.126 469.539 243.492 470.598C243.879 471.657 244.394 472.43 245.039 472.917C245.705 473.404 246.468 473.648 247.328 473.648Z" fill="white"/>
<defs>
<linearGradient id="paint0_linear_71_277" x1="-0.863496" y1="273.143" x2="492.562" y2="273.143" gradientUnits="userSpaceOnUse">
<stop stop-color="#AFFFF1"/>
<stop offset="1" stop-color="#E1C9FF"/>
</linearGradient>
<linearGradient id="paint1_linear_71_277" x1="-1.27167" y1="269.109" x2="494.525" y2="269.109" gradientUnits="userSpaceOnUse">
<stop stop-color="#CEFFF6"/>
<stop offset="1" stop-color="#E8D6FF"/>
</linearGradient>
<linearGradient id="paint2_linear_71_277" x1="-1.99022" y1="269.109" x2="495.562" y2="269.109" gradientUnits="userSpaceOnUse">
<stop stop-color="#EFFFFC"/>
<stop offset="1" stop-color="#F4EBFF"/>
</linearGradient>
</defs>
</svg>